<mxfile host="65bd71144e">
    <diagram name="Page-1" id="TGonGNO5jU-mGIilTvC9">
        <mxGraphModel dx="6427" dy="5060" grid="0" gridSize="10" guides="1" tooltips="1" connect="1" arrows="1" fold="1" page="0" pageScale="1" pageWidth="850" pageHeight="1100" background="#595959" math="0" shadow="0">
            <root>
                <mxCell id="0"/>
                <mxCell id="1" parent="0"/>
                <mxCell id="r-MVeTWE6W_a-qISFKLb-1" value="&lt;div style='width: 274.0px;height:auto;word-break: break-word;'&gt;&lt;div align=&quot;center&quot;&gt;&lt;span style=&quot;font-family: Arial; font-size: 20px; line-height: 0;&quot;&gt;&lt;span style=&quot; line-height: 0;&quot;&gt;&lt;span style=&quot;color: #000000; font-size: 20px; line-height: 16.5px;&quot;&gt;Get routes for today and&lt;br&gt;save them to DB with &lt;br&gt;todays timestamp&lt;/span&gt;&lt;br&gt;&lt;/span&gt;&lt;/span&gt;&lt;/div&gt;&lt;/div&gt;" style="shape=rect;rounded=1;arcSize=15;absoluteArcSize=1;shadow=0;strokeWidth=1;fillColor=none;pointerEvents=0;strokeColor=#000000;gradientColor=#FFFFFF;gradientDirection=north;opacity=100.0;dashed=1;fixDash=1;dashPattern=;html=1;nl2Br=0;verticalAlign=middle;align=center;spacingLeft=2.0;spacingRight=0;whiteSpace=wrap;gliffyId=0;" parent="1" vertex="1">
                    <mxGeometry x="1838.1229248046875" y="3066.863037109375" width="281" height="110" as="geometry"/>
                </mxCell>
                <mxCell id="r-MVeTWE6W_a-qISFKLb-2" value="&lt;div style='width: 333.0px;height:auto;word-break: break-word;'&gt;&lt;div align=&quot;center&quot;&gt;&lt;span style=&quot;font-family: Arial; font-size: 20px; line-height: 0;&quot;&gt;&lt;span style=&quot; line-height: 0;&quot;&gt;&lt;span style=&quot;color: #000000; font-size: 20px; line-height: 16.5px;&quot;&gt;Route/Train&lt;/span&gt;&lt;br&gt;&lt;/span&gt;&lt;/span&gt;&lt;/div&gt;&lt;/div&gt;" style="shape=rect;rounded=1;arcSize=15;absoluteArcSize=1;shadow=0;strokeWidth=1;fillColor=none;pointerEvents=0;strokeColor=#000000;gradientColor=#FFFFFF;gradientDirection=north;opacity=100.0;dashed=1;fixDash=1;dashPattern=;html=1;nl2Br=0;verticalAlign=middle;align=center;spacingLeft=2.0;spacingRight=0;whiteSpace=wrap;gliffyId=2;" parent="1" vertex="1">
                    <mxGeometry x="779.3371887207031" y="858.1725158691406" width="340" height="145" as="geometry"/>
                </mxCell>
                <mxCell id="r-MVeTWE6W_a-qISFKLb-3" style="shape=filledEdge;strokeWidth=1;strokeColor=#000000;fillColor=none;startArrow=none;startFill=0;startSize=6;endArrow=open;endFill=0;endSize=6;rounded=1;dashed=1;fixDash=1;dashPattern=;gliffyId=4;" parent="1" edge="1">
                    <mxGeometry width="146.8837432861328" height="174.1666717529297" relative="1" as="geometry">
                        <mxPoint x="900.7298889160156" y="1013.1724853515625" as="sourcePoint"/>
                        <mxPoint x="753.8461303710938" y="1187.3391723632812" as="targetPoint"/>
                    </mxGeometry>
                </mxCell>
                <mxCell id="r-MVeTWE6W_a-qISFKLb-4" style="shape=filledEdge;strokeWidth=1;strokeColor=#000000;fillColor=none;startArrow=none;startFill=0;startSize=6;endArrow=open;endFill=0;endSize=6;rounded=1;dashed=1;fixDash=1;dashPattern=;gliffyId=5;" parent="1" edge="1">
                    <mxGeometry width="18.642480850219727" height="165" relative="1" as="geometry">
                        <mxPoint x="956.4957275390625" y="1021.505859375" as="sourcePoint"/>
                        <mxPoint x="975.13818359375" y="1186.505859375" as="targetPoint"/>
                    </mxGeometry>
                </mxCell>
                <mxCell id="r-MVeTWE6W_a-qISFKLb-5" style="shape=filledEdge;strokeWidth=1;strokeColor=#000000;fillColor=none;startArrow=none;startFill=0;startSize=6;endArrow=open;endFill=0;endSize=6;rounded=1;dashed=1;fixDash=1;dashPattern=;gliffyId=6;" parent="1" edge="1">
                    <mxGeometry width="133.97610473632812" height="164.5833282470703" relative="1" as="geometry">
                        <mxPoint x="1024.5702514648438" y="1019.8391723632812" as="sourcePoint"/>
                        <mxPoint x="1158.54638671875" y="1184.4224853515625" as="targetPoint"/>
                    </mxGeometry>
                </mxCell>
                <mxCell id="r-MVeTWE6W_a-qISFKLb-6" value="&lt;div style='width: 138.0px;height:auto;word-break: break-word;'&gt;&lt;div align=&quot;center&quot;&gt;&lt;span style=&quot;font-family: Arial; font-size: 20px; line-height: 0;&quot;&gt;&lt;span style=&quot; line-height: 0;&quot;&gt;&lt;span style=&quot;color: #000000; font-size: 20px; line-height: 16.5px;&quot;&gt;Station&lt;/span&gt;&lt;br&gt;&lt;/span&gt;&lt;/span&gt;&lt;/div&gt;&lt;/div&gt;" style="shape=rect;rounded=1;arcSize=15;absoluteArcSize=1;shadow=0;strokeWidth=1;fillColor=none;pointerEvents=0;strokeColor=#000000;gradientColor=#FFFFFF;gradientDirection=north;opacity=100.0;dashed=1;fixDash=1;dashPattern=;html=1;nl2Br=0;verticalAlign=middle;align=center;spacingLeft=2.0;spacingRight=0;whiteSpace=wrap;gliffyId=7;" parent="1" vertex="1">
                    <mxGeometry x="657.2538452148438" y="1200.880859375" width="145" height="90" as="geometry"/>
                </mxCell>
                <mxCell id="r-MVeTWE6W_a-qISFKLb-7" value="&lt;div style='width: 138.0px;height:auto;word-break: break-word;'&gt;&lt;div align=&quot;center&quot;&gt;&lt;span style=&quot;font-family: Arial; font-size: 20px; line-height: 0;&quot;&gt;&lt;span style=&quot; line-height: 0;&quot;&gt;&lt;span style=&quot;color: #000000; font-size: 20px; line-height: 16.5px;&quot;&gt;Station&lt;/span&gt;&lt;br&gt;&lt;/span&gt;&lt;/span&gt;&lt;/div&gt;&lt;/div&gt;" style="shape=rect;rounded=1;arcSize=15;absoluteArcSize=1;shadow=0;strokeWidth=1;fillColor=none;pointerEvents=0;strokeColor=#000000;gradientColor=#FFFFFF;gradientDirection=north;opacity=100.0;dashed=1;fixDash=1;dashPattern=;html=1;nl2Br=0;verticalAlign=middle;align=center;spacingLeft=2.0;spacingRight=0;whiteSpace=wrap;gliffyId=9;" parent="1" vertex="1">
                    <mxGeometry x="898.0871887207031" y="1200.880859375" width="145" height="90" as="geometry"/>
                </mxCell>
                <mxCell id="r-MVeTWE6W_a-qISFKLb-8" value="&lt;div style='width: 138.0px;height:auto;word-break: break-word;'&gt;&lt;div align=&quot;center&quot;&gt;&lt;span style=&quot;font-family: Arial; font-size: 20px; line-height: 0;&quot;&gt;&lt;span style=&quot; line-height: 0;&quot;&gt;&lt;span style=&quot;color: #000000; font-size: 20px; line-height: 16.5px;&quot;&gt;Station&lt;/span&gt;&lt;br&gt;&lt;/span&gt;&lt;/span&gt;&lt;/div&gt;&lt;/div&gt;" style="shape=rect;rounded=1;arcSize=15;absoluteArcSize=1;shadow=0;strokeWidth=1;fillColor=none;pointerEvents=0;strokeColor=#000000;gradientColor=#FFFFFF;gradientDirection=north;opacity=100.0;dashed=1;fixDash=1;dashPattern=;html=1;nl2Br=0;verticalAlign=middle;align=center;spacingLeft=2.0;spacingRight=0;whiteSpace=wrap;gliffyId=11;" parent="1" vertex="1">
                    <mxGeometry x="1140.587158203125" y="1200.880859375" width="145" height="90" as="geometry"/>
                </mxCell>
                <mxCell id="r-MVeTWE6W_a-qISFKLb-9" style="shape=filledEdge;strokeWidth=1;strokeColor=#000000;fillColor=none;startArrow=none;startFill=0;startSize=6;endArrow=open;endFill=0;endSize=6;rounded=1;dashed=1;fixDash=1;dashPattern=;gliffyId=13;" parent="1" edge="1">
                    <mxGeometry width="196.0866241455078" height="12.192291259765625" relative="1" as="geometry">
                        <mxPoint x="759.3371887207031" y="872.9941711425781" as="sourcePoint"/>
                        <mxPoint x="563.2505645751953" y="860.8018798828125" as="targetPoint"/>
                    </mxGeometry>
                </mxCell>
                <mxCell id="r-MVeTWE6W_a-qISFKLb-10" value="&lt;div style='width: 123.0px;height:auto;word-break: break-word;'&gt;&lt;div align=&quot;center&quot;&gt;&lt;span style=&quot;font-family: Arial; font-size: 20px; line-height: 0;&quot;&gt;&lt;span style=&quot; line-height: 0;&quot;&gt;&lt;span style=&quot;color: #000000; font-size: 20px; line-height: 16.5px;&quot;&gt;Delay&lt;/span&gt;&lt;br&gt;&lt;/span&gt;&lt;/span&gt;&lt;/div&gt;&lt;/div&gt;" style="shape=rect;rounded=1;arcSize=15;absoluteArcSize=1;shadow=0;strokeWidth=1;fillColor=none;pointerEvents=0;strokeColor=#000000;gradientColor=#FFFFFF;gradientDirection=north;opacity=100.0;dashed=1;fixDash=1;dashPattern=;html=1;nl2Br=0;verticalAlign=middle;align=center;spacingLeft=2.0;spacingRight=0;whiteSpace=wrap;gliffyId=14;" parent="1" vertex="1">
                    <mxGeometry x="424.91722106933594" y="825.6725158691406" width="130" height="61.66666793823242" as="geometry"/>
                </mxCell>
                <mxCell id="r-MVeTWE6W_a-qISFKLb-11" style="shape=filledEdge;strokeWidth=1;strokeColor=#000000;fillColor=none;startArrow=none;startFill=0;startSize=6;endArrow=open;endFill=0;endSize=6;rounded=1;dashed=1;fixDash=1;dashPattern=;gliffyId=16;" parent="1" edge="1">
                    <mxGeometry width="192.24671936035156" height="16.58336639404297" relative="1" as="geometry">
                        <mxPoint x="755.4972534179688" y="915.0404052734375" as="sourcePoint"/>
                        <mxPoint x="563.2505340576172" y="931.623779296875" as="targetPoint"/>
                    </mxGeometry>
                </mxCell>
                <mxCell id="r-MVeTWE6W_a-qISFKLb-12" value="&lt;div style='width: 123.0px;height:auto;word-break: break-word;'&gt;&lt;div align=&quot;center&quot;&gt;&lt;span style=&quot;font-family: Arial; font-size: 20px; line-height: 0;&quot;&gt;&lt;span style=&quot; line-height: 0;&quot;&gt;&lt;span style=&quot;color: #000000; font-size: 20px; line-height: 16.5px;&quot;&gt;Delay&lt;/span&gt;&lt;br&gt;&lt;/span&gt;&lt;/span&gt;&lt;/div&gt;&lt;/div&gt;" style="shape=rect;rounded=1;arcSize=15;absoluteArcSize=1;shadow=0;strokeWidth=1;fillColor=none;pointerEvents=0;strokeColor=#000000;gradientColor=#FFFFFF;gradientDirection=north;opacity=100.0;dashed=1;fixDash=1;dashPattern=;html=1;nl2Br=0;verticalAlign=middle;align=center;spacingLeft=2.0;spacingRight=0;whiteSpace=wrap;gliffyId=17;" parent="1" vertex="1">
                    <mxGeometry x="424.91722106933594" y="896.505859375" width="130" height="61.66666793823242" as="geometry"/>
                </mxCell>
                <mxCell id="r-MVeTWE6W_a-qISFKLb-13" style="shape=filledEdge;strokeWidth=1;strokeColor=#000000;fillColor=none;startArrow=none;startFill=0;startSize=6;endArrow=open;endFill=0;endSize=6;rounded=1;dashed=1;fixDash=1;dashPattern=;gliffyId=19;" parent="1" edge="1">
                    <mxGeometry width="197.24671936035156" height="50.69621658325195" relative="1" as="geometry">
                        <mxPoint x="760.4972534179688" y="948.6748046875" as="sourcePoint"/>
                        <mxPoint x="563.2505340576172" y="999.3710327148438" as="targetPoint"/>
                    </mxGeometry>
                </mxCell>
                <mxCell id="r-MVeTWE6W_a-qISFKLb-14" value="&lt;div style='width: 123.0px;height:auto;word-break: break-word;'&gt;&lt;div align=&quot;center&quot;&gt;&lt;span style=&quot;font-family: Arial; font-size: 20px; line-height: 0;&quot;&gt;&lt;span style=&quot; line-height: 0;&quot;&gt;&lt;span style=&quot;color: #000000; font-size: 20px; line-height: 16.5px;&quot;&gt;Delay&lt;/span&gt;&lt;br&gt;&lt;/span&gt;&lt;/span&gt;&lt;/div&gt;&lt;/div&gt;" style="shape=rect;rounded=1;arcSize=15;absoluteArcSize=1;shadow=0;strokeWidth=1;fillColor=none;pointerEvents=0;strokeColor=#000000;gradientColor=#FFFFFF;gradientDirection=north;opacity=100.0;dashed=1;fixDash=1;dashPattern=;html=1;nl2Br=0;verticalAlign=middle;align=center;spacingLeft=2.0;spacingRight=0;whiteSpace=wrap;gliffyId=20;" parent="1" vertex="1">
                    <mxGeometry x="424.91722106933594" y="964.8391723632812" width="130" height="61.66666793823242" as="geometry"/>
                </mxCell>
                <mxCell id="r-MVeTWE6W_a-qISFKLb-15" style="shape=rect;rounded=1;arcSize=15;absoluteArcSize=1;shadow=0;strokeWidth=1;fillColor=none;pointerEvents=0;strokeColor=#000000;gradientColor=#FFFFFF;gradientDirection=north;opacity=100.0;dashed=1;fixDash=1;dashPattern=;gliffyId=22;" parent="1" vertex="1">
                    <mxGeometry x="1820.4482421875" y="3052.339111328125" width="679.8412475585938" height="147.3015899658203" as="geometry"/>
                </mxCell>
                <mxCell id="r-MVeTWE6W_a-qISFKLb-16" value="&lt;div style='width: 164.59184px;height:auto;word-break: break-word;'&gt;&lt;div align=&quot;left&quot;&gt;&lt;span style=&quot;font-family: Arial; font-size: 20px; line-height: 0;&quot;&gt;&lt;span style=&quot; line-height: 0;&quot;&gt;&lt;span style=&quot;color: #000000; font-size: 20px; line-height: 16.5px;&quot;&gt;Route fetcher&lt;/span&gt;&lt;br&gt;&lt;/span&gt;&lt;/span&gt;&lt;/div&gt;&lt;/div&gt;" style="text;html=1;nl2Br=0;html=1;nl2Br=0;verticalAlign=middle;align=left;spacingLeft=0.0;spacingRight=0;whiteSpace=wrap;gliffyId=23;" parent="1" vertex="1">
                    <mxGeometry x="1840.28955078125" y="3015.831298828125" width="167.5918426513672" height="25" as="geometry"/>
                </mxCell>
                <mxCell id="r-MVeTWE6W_a-qISFKLb-17" style="shape=filledEdge;strokeWidth=1;strokeColor=#000000;fillColor=none;startArrow=none;startFill=0;startSize=6;endArrow=open;endFill=0;endSize=6;rounded=1;dashed=1;fixDash=1;dashPattern=;gliffyId=24;" parent="1" edge="1">
                    <mxGeometry width="69.10713958740234" height="0.4267277717590332" relative="1" as="geometry">
                        <mxPoint x="2128.8609619140625" y="3127.156494140625" as="sourcePoint"/>
                        <mxPoint x="2197.9681396484375" y="3126.729736328125" as="targetPoint"/>
                    </mxGeometry>
                </mxCell>
                <mxCell id="r-MVeTWE6W_a-qISFKLb-18" value="&lt;div style='width: 274.0px;height:auto;word-break: break-word;'&gt;&lt;div align=&quot;center&quot;&gt;&lt;span style=&quot;font-family: Arial; font-size: 20px; line-height: 0;&quot;&gt;&lt;span style=&quot; line-height: 0;&quot;&gt;&lt;span style=&quot;color: #000000; font-size: 20px; line-height: 16.5px;&quot;&gt;Send todays routes to the&lt;br&gt;Delay Checker.&lt;/span&gt;&lt;br&gt;&lt;/span&gt;&lt;/span&gt;&lt;/div&gt;&lt;/div&gt;" style="shape=rect;rounded=1;arcSize=15;absoluteArcSize=1;shadow=0;strokeWidth=1;fillColor=none;pointerEvents=0;strokeColor=#000000;gradientColor=#FFFFFF;gradientDirection=north;opacity=100.0;dashed=1;fixDash=1;dashPattern=;html=1;nl2Br=0;verticalAlign=middle;align=center;spacingLeft=2.0;spacingRight=0;whiteSpace=wrap;gliffyId=25;" parent="1" vertex="1">
                    <mxGeometry x="2203.182373046875" y="3066.684326171875" width="281" height="110" as="geometry"/>
                </mxCell>
                <mxCell id="r-MVeTWE6W_a-qISFKLb-19" value="&lt;div style='width: 274.0px;height:auto;word-break: break-word;'&gt;&lt;div align=&quot;center&quot;&gt;&lt;span style=&quot;font-family: Arial; font-size: 20px; line-height: 0;&quot;&gt;&lt;span style=&quot; line-height: 0;&quot;&gt;&lt;span style=&quot;color: #000000; font-size: 20px; line-height: 16.5px;&quot;&gt;Wait for routes&lt;/span&gt;&lt;br&gt;&lt;/span&gt;&lt;/span&gt;&lt;/div&gt;&lt;/div&gt;" style="shape=rect;rounded=1;arcSize=15;absoluteArcSize=1;shadow=0;strokeWidth=1;fillColor=none;pointerEvents=0;strokeColor=#000000;gradientColor=#FFFFFF;gradientDirection=north;opacity=100.0;dashed=1;fixDash=1;dashPattern=;html=1;nl2Br=0;verticalAlign=middle;align=center;spacingLeft=2.0;spacingRight=0;whiteSpace=wrap;gliffyId=27;" parent="1" vertex="1">
                    <mxGeometry x="2632.027587890625" y="3084.9462890625" width="281" height="110" as="geometry"/>
                </mxCell>
                <mxCell id="r-MVeTWE6W_a-qISFKLb-20" style="shape=filledEdge;strokeWidth=1;strokeColor=#000000;fillColor=none;startArrow=none;startFill=0;startSize=6;endArrow=open;endFill=0;endSize=6;rounded=1;dashed=1;fixDash=1;dashPattern=;gliffyId=29;" parent="1" edge="1">
                    <mxGeometry width="115.71428680419922" height="1.190845012664795" relative="1" as="geometry">
                        <mxPoint x="2921.527587890625" y="3143.4912109375" as="sourcePoint"/>
                        <mxPoint x="3037.241943359375" y="3142.30029296875" as="targetPoint"/>
                    </mxGeometry>
                </mxCell>
                <mxCell id="r-MVeTWE6W_a-qISFKLb-21" value="&lt;div style='width: 274.0px;height:auto;word-break: break-word;'&gt;&lt;div align=&quot;center&quot;&gt;&lt;span style=&quot;font-family: Arial; font-size: 20px; line-height: 0;&quot;&gt;&lt;span style=&quot; line-height: 0;&quot;&gt;&lt;span style=&quot;color: #000000; font-size: 20px; line-height: 16.5px;&quot;&gt;Spin up new task for every&lt;br&gt;route&lt;/span&gt;&lt;br&gt;&lt;/span&gt;&lt;/span&gt;&lt;/div&gt;&lt;/div&gt;" style="shape=rect;rounded=1;arcSize=15;absoluteArcSize=1;shadow=0;strokeWidth=1;fillColor=none;pointerEvents=0;strokeColor=#000000;gradientColor=#FFFFFF;gradientDirection=north;opacity=100.0;dashed=1;fixDash=1;dashPattern=;html=1;nl2Br=0;verticalAlign=middle;align=center;spacingLeft=2.0;spacingRight=0;whiteSpace=wrap;gliffyId=30;" parent="1" vertex="1">
                    <mxGeometry x="3041.027587890625" y="3085.8154296875" width="281" height="110" as="geometry"/>
                </mxCell>
                <mxCell id="r-MVeTWE6W_a-qISFKLb-22" style="shape=filledEdge;strokeWidth=1;strokeColor=#000000;fillColor=none;startArrow=none;startFill=0;startSize=6;endArrow=open;endFill=0;endSize=6;rounded=1;dashed=1;fixDash=1;dashPattern=;gliffyId=32;" parent="1" edge="1">
                    <mxGeometry width="115.71428680419922" height="1.190845012664795" relative="1" as="geometry">
                        <mxPoint x="3332.5654296875" y="3146.34814453125" as="sourcePoint"/>
                        <mxPoint x="3448.27978515625" y="3145.1572265625" as="targetPoint"/>
                    </mxGeometry>
                </mxCell>
                <mxCell id="r-MVeTWE6W_a-qISFKLb-23" value="&lt;div style='width: 274.0px;height:auto;word-break: break-word;'&gt;&lt;div align=&quot;center&quot;&gt;&lt;span style=&quot;font-family: Arial; font-size: 20px; line-height: 0;&quot;&gt;&lt;span style=&quot; line-height: 0;&quot;&gt;&lt;span style=&quot;color: #000000; font-size: 20px; line-height: 16.5px;&quot;&gt;Wait 1 minute&lt;/span&gt;&lt;br&gt;&lt;/span&gt;&lt;/span&gt;&lt;/div&gt;&lt;/div&gt;" style="shape=rect;rounded=1;arcSize=15;absoluteArcSize=1;shadow=0;strokeWidth=1;fillColor=none;pointerEvents=0;strokeColor=#000000;gradientColor=#FFFFFF;gradientDirection=north;opacity=100.0;dashed=1;fixDash=1;dashPattern=;html=1;nl2Br=0;verticalAlign=middle;align=center;spacingLeft=2.0;spacingRight=0;whiteSpace=wrap;gliffyId=33;" parent="1" vertex="1">
                    <mxGeometry x="3452.0654296875" y="3088.672607421875" width="281" height="110" as="geometry"/>
                </mxCell>
                <mxCell id="r-MVeTWE6W_a-qISFKLb-24" value="&lt;div style='width: 274.0px;height:auto;word-break: break-word;'&gt;&lt;div align=&quot;center&quot;&gt;&lt;span style=&quot;font-family: Arial; font-size: 20px; line-height: 0;&quot;&gt;&lt;span style=&quot; line-height: 0;&quot;&gt;&lt;span style=&quot;color: #000000; font-size: 20px; line-height: 16.5px;&quot;&gt;Check the delay of the &lt;br&gt;route and save to DB if &lt;br&gt;the stop updated&lt;/span&gt;&lt;br&gt;&lt;/span&gt;&lt;/span&gt;&lt;/div&gt;&lt;/div&gt;" style="shape=rect;rounded=1;arcSize=15;absoluteArcSize=1;shadow=0;strokeWidth=1;fillColor=none;pointerEvents=0;strokeColor=#000000;gradientColor=#FFFFFF;gradientDirection=north;opacity=100.0;dashed=1;fixDash=1;dashPattern=;html=1;nl2Br=0;verticalAlign=middle;align=center;spacingLeft=2.0;spacingRight=0;whiteSpace=wrap;gliffyId=35;" parent="1" vertex="1">
                    <mxGeometry x="3900.392578125" y="3092.958251953125" width="281" height="110" as="geometry"/>
                </mxCell>
                <mxCell id="r-MVeTWE6W_a-qISFKLb-25" style="shape=rect;rounded=1;arcSize=15;absoluteArcSize=1;shadow=0;strokeWidth=1;fillColor=none;pointerEvents=0;strokeColor=#000000;gradientColor=#FFFFFF;gradientDirection=north;opacity=100.0;dashed=1;fixDash=1;dashPattern=;gliffyId=37;" parent="1" vertex="1">
                    <mxGeometry x="2613.9521484375" y="3061.458251953125" width="1587.5" height="535" as="geometry"/>
                </mxCell>
                <mxCell id="r-MVeTWE6W_a-qISFKLb-26" value="&lt;div style='width: 162.04787px;height:auto;word-break: break-word;'&gt;&lt;div align=&quot;left&quot;&gt;&lt;span style=&quot;font-family: Arial; font-size: 20px; line-height: 0;&quot;&gt;&lt;span style=&quot; line-height: 0;&quot;&gt;&lt;span style=&quot;color: #000000; font-size: 20px; line-height: 16.5px;&quot;&gt;Delay Checker&lt;/span&gt;&lt;br&gt;&lt;/span&gt;&lt;/span&gt;&lt;/div&gt;&lt;/div&gt;" style="text;html=1;nl2Br=0;html=1;nl2Br=0;verticalAlign=middle;align=left;spacingLeft=0.0;spacingRight=0;whiteSpace=wrap;gliffyId=38;" parent="1" vertex="1">
                    <mxGeometry x="2636.177490234375" y="3018.005859375" width="165.04786682128906" height="25" as="geometry"/>
                </mxCell>
                <mxCell id="r-MVeTWE6W_a-qISFKLb-27" value="&lt;div style='width: 274.0px;height:auto;word-break: break-word;'&gt;&lt;div align=&quot;center&quot;&gt;&lt;span style=&quot;font-family: Arial; font-size: 20px; line-height: 0;&quot;&gt;&lt;span style=&quot; line-height: 0;&quot;&gt;&lt;span style=&quot;color: #000000; font-size: 20px; line-height: 16.5px;&quot;&gt;Is the route over?&lt;/span&gt;&lt;br&gt;&lt;/span&gt;&lt;/span&gt;&lt;/div&gt;&lt;/div&gt;" style="shape=rect;rounded=1;arcSize=15;absoluteArcSize=1;shadow=0;strokeWidth=1;fillColor=none;pointerEvents=0;strokeColor=#000000;gradientColor=#FFFFFF;gradientDirection=north;opacity=100.0;dashed=1;fixDash=1;dashPattern=;html=1;nl2Br=0;verticalAlign=middle;align=center;spacingLeft=2.0;spacingRight=0;whiteSpace=wrap;gliffyId=39;" parent="1" vertex="1">
                    <mxGeometry x="3676.309326171875" y="3230.6962890625" width="281" height="110" as="geometry"/>
                </mxCell>
                <mxCell id="r-MVeTWE6W_a-qISFKLb-28" style="shape=filledEdge;strokeWidth=1;strokeColor=#000000;fillColor=none;startArrow=none;startFill=0;startSize=6;endArrow=open;endFill=0;endSize=6;rounded=1;dashed=1;fixDash=1;dashPattern=;html=1;nl2Br=0;gliffyId=41;" parent="1" edge="1">
                    <mxGeometry width="77.14286041259766" height="75.71428680419922" relative="1" as="geometry">
                        <mxPoint x="3659.98388671875" y="3281.72802734375" as="sourcePoint"/>
                        <mxPoint x="3582.841064453125" y="3206.013671875" as="targetPoint"/>
                        <Array as="points">
                            <mxPoint x="3588.555419921875" y="3277.4423828125"/>
                        </Array>
                    </mxGeometry>
                </mxCell>
                <mxCell id="r-MVeTWE6W_a-qISFKLb-29" value="&lt;div style=&quot;width: 70.14286px;height:auto;word-break: break-word;&quot;&gt;&lt;div align=&quot;center&quot;&gt;&lt;span style=&quot;font-family: Arial; font-size: 20px; line-height: 0;&quot;&gt;&lt;span style=&quot; line-height: 0;&quot;&gt;&lt;span style=&quot;color: #000000; font-size: 20px; line-height: 16.5px;&quot;&gt;No&lt;/span&gt;&lt;br&gt;&lt;/span&gt;&lt;/span&gt;&lt;/div&gt;&lt;/div&gt;" style="text;html=1;nl2Br=0;points=[];labelBackgroundColor=none;html=1;nl2Br=0;verticalAlign=middle;align=center;spacingLeft=0.0;spacingRight=0;whiteSpace=wrap;gliffyId=42;" parent="r-MVeTWE6W_a-qISFKLb-28" vertex="1">
                    <mxGeometry relative="1" as="geometry">
                        <mxPoint x="33" y="-16" as="offset"/>
                    </mxGeometry>
                </mxCell>
                <mxCell id="r-MVeTWE6W_a-qISFKLb-30" style="shape=filledEdge;strokeWidth=1;strokeColor=#000000;fillColor=none;startArrow=none;startFill=0;startSize=6;endArrow=open;endFill=0;endSize=6;rounded=1;dashed=1;fixDash=1;dashPattern=;gliffyId=43;" parent="1" edge="1">
                    <mxGeometry width="91.42857360839844" height="74.28571319580078" relative="1" as="geometry">
                        <mxPoint x="4056.809326171875" y="3215.6962890625" as="sourcePoint"/>
                        <mxPoint x="3965.380859375" y="3289.98193359375" as="targetPoint"/>
                        <Array as="points">
                            <mxPoint x="4051.094970703125" y="3284.267822265625"/>
                        </Array>
                    </mxGeometry>
                </mxCell>
                <mxCell id="r-MVeTWE6W_a-qISFKLb-31" style="shape=filledEdge;strokeWidth=1;strokeColor=#000000;fillColor=none;startArrow=none;startFill=0;startSize=6;endArrow=open;endFill=0;endSize=6;rounded=1;dashed=1;fixDash=1;dashPattern=;html=1;nl2Br=0;gliffyId=44;" parent="1" edge="1">
                    <mxGeometry width="325" height="1.6666666269302368" relative="1" as="geometry">
                        <mxPoint x="3660.142822265625" y="3316.29150390625" as="sourcePoint"/>
                        <mxPoint x="3335.142822265625" y="3317.958251953125" as="targetPoint"/>
                    </mxGeometry>
                </mxCell>
                <mxCell id="r-MVeTWE6W_a-qISFKLb-32" value="&lt;div style=&quot;width: 318.0px;height:auto;word-break: break-word;&quot;&gt;&lt;div align=&quot;center&quot;&gt;&lt;span style=&quot;font-family: Arial; font-size: 20px; line-height: 0;&quot;&gt;&lt;span style=&quot; line-height: 0;&quot;&gt;&lt;span style=&quot;color: #000000; font-size: 20px; line-height: 16.5px;&quot;&gt;Yes&lt;/span&gt;&lt;br&gt;&lt;/span&gt;&lt;/span&gt;&lt;/div&gt;&lt;/div&gt;" style="text;html=1;nl2Br=0;points=[];labelBackgroundColor=none;html=1;nl2Br=0;verticalAlign=middle;align=center;spacingLeft=0.0;spacingRight=0;whiteSpace=wrap;gliffyId=45;" parent="r-MVeTWE6W_a-qISFKLb-31" vertex="1">
                    <mxGeometry relative="1" as="geometry">
                        <mxPoint x="-3" y="17" as="offset"/>
                    </mxGeometry>
                </mxCell>
                <mxCell id="r-MVeTWE6W_a-qISFKLb-33" value="&lt;div style='width: 274.0px;height:auto;word-break: break-word;'&gt;&lt;div align=&quot;center&quot;&gt;&lt;span style=&quot;font-family: Arial; font-size: 20px; line-height: 0;&quot;&gt;&lt;span style=&quot; line-height: 0;&quot;&gt;&lt;span style=&quot;color: #000000; font-size: 20px; line-height: 16.5px;&quot;&gt;Finish the task&lt;/span&gt;&lt;br&gt;&lt;/span&gt;&lt;/span&gt;&lt;/div&gt;&lt;/div&gt;" style="shape=rect;rounded=1;arcSize=15;absoluteArcSize=1;shadow=0;strokeWidth=1;fillColor=none;pointerEvents=0;strokeColor=#000000;gradientColor=#FFFFFF;gradientDirection=north;opacity=100.0;dashed=1;fixDash=1;dashPattern=;html=1;nl2Br=0;verticalAlign=middle;align=center;spacingLeft=2.0;spacingRight=0;whiteSpace=wrap;gliffyId=46;" parent="1" vertex="1">
                    <mxGeometry x="3037.777587890625" y="3239.029541015625" width="281" height="110" as="geometry"/>
                </mxCell>
                <mxCell id="r-MVeTWE6W_a-qISFKLb-34" style="shape=filledEdge;strokeWidth=1;strokeColor=#000000;fillColor=none;startArrow=none;startFill=0;startSize=6;endArrow=open;endFill=0;endSize=6;rounded=1;dashed=1;fixDash=1;dashPattern=;gliffyId=48;edgeStyle=orthogonalEdgeStyle;" parent="1" edge="1">
                    <mxGeometry width="142.5" relative="1" as="geometry">
                        <mxPoint x="3743.388671875" y="3144.259765625" as="sourcePoint"/>
                        <mxPoint x="3885.888671875" y="3144.259765625" as="targetPoint"/>
                    </mxGeometry>
                </mxCell>
                <mxCell id="r-MVeTWE6W_a-qISFKLb-35" style="shape=filledEdge;strokeWidth=1;strokeColor=#000000;fillColor=none;startArrow=none;startFill=0;startSize=6;endArrow=open;endFill=0;endSize=6;rounded=1;dashed=1;fixDash=1;dashPattern=;gliffyId=49;" parent="1" edge="1">
                    <mxGeometry width="117.08333587646484" height="2.1369006633758545" relative="1" as="geometry">
                        <mxPoint x="2497.1982421875" y="3126.767578125" as="sourcePoint"/>
                        <mxPoint x="2614.281494140625" y="3124.630615234375" as="targetPoint"/>
                    </mxGeometry>
                </mxCell>
                <mxCell id="r-MVeTWE6W_a-qISFKLb-36" style="shape=rect;rounded=1;arcSize=15;absoluteArcSize=1;shadow=0;strokeWidth=1;fillColor=none;pointerEvents=0;strokeColor=#000000;gradientColor=#FFFFFF;gradientDirection=north;opacity=100.0;dashed=1;fixDash=1;dashPattern=;gliffyId=50;" parent="1" vertex="1">
                    <mxGeometry x="1404.6864013671875" y="2966.97705078125" width="2833.80712890625" height="657.349609375" as="geometry"/>
                </mxCell>
                <mxCell id="r-MVeTWE6W_a-qISFKLb-37" value="&lt;div style='width: 183.16785px;height:auto;word-break: break-word;'&gt;&lt;div align=&quot;left&quot;&gt;&lt;span style=&quot;font-family: Arial; font-size: 20px; line-height: 0;&quot;&gt;&lt;span style=&quot; line-height: 0;&quot;&gt;&lt;span style=&quot;color: #000000; font-size: 20px; line-height: 16.5px;&quot;&gt;Data Collection&lt;/span&gt;&lt;br&gt;&lt;/span&gt;&lt;/span&gt;&lt;/div&gt;&lt;/div&gt;" style="text;html=1;nl2Br=0;html=1;nl2Br=0;verticalAlign=middle;align=left;spacingLeft=0.0;spacingRight=0;whiteSpace=wrap;gliffyId=51;" parent="1" vertex="1">
                    <mxGeometry x="1433.365478515625" y="2929.857177734375" width="186.1678466796875" height="25" as="geometry"/>
                </mxCell>
                <mxCell id="r-MVeTWE6W_a-qISFKLb-38" style="shape=filledEdge;strokeWidth=1;strokeColor=#0a11d3;fillColor=none;startArrow=none;startFill=0;startSize=6;endArrow=none;endFill=0;endSize=6;rounded=1;dashed=1;fixDash=1;dashPattern=;gliffyId=52;" parent="1" edge="1">
                    <mxGeometry width="184.24087524414062" height="237.79209899902344" relative="1" as="geometry">
                        <mxPoint x="4465.052734375" y="3039.67822265625" as="sourcePoint"/>
                        <mxPoint x="4465.052734375" y="3039.67822265625" as="targetPoint"/>
                        <Array as="points">
                            <mxPoint x="4465.66015625" y="3219.400146484375"/>
                            <mxPoint x="4465.0810546875" y="3239.86083984375"/>
                            <mxPoint x="4474.54150390625" y="3248.701416015625"/>
                            <mxPoint x="4507.48681640625" y="3256.18359375"/>
                            <mxPoint x="4563.173828125" y="3258.513427734375"/>
                            <mxPoint x="4616.37890625" y="3254.79345703125"/>
                            <mxPoint x="4644.64697265625" y="3245.8974609375"/>
                            <mxPoint x="4648.63427734375" y="3238.39794921875"/>
                            <mxPoint x="4649.19384765625" y="3221.92529296875"/>
                            <mxPoint x="4648.75439453125" y="3054.755859375"/>
                            <mxPoint x="4647.763671875" y="3038.96142578125"/>
                            <mxPoint x="4635.93359375" y="3030.1337890625"/>
                            <mxPoint x="4611.02197265625" y="3025.021484375"/>
                            <mxPoint x="4554.25146484375" y="3020.721435546875"/>
                            <mxPoint x="4508.73583984375" y="3023.285400390625"/>
                            <mxPoint x="4472.9384765625" y="3031.982421875"/>
                            <mxPoint x="4464.953125" y="3039.5703125"/>
                        </Array>
                    </mxGeometry>
                </mxCell>
                <mxCell id="r-MVeTWE6W_a-qISFKLb-39" style="shape=filledEdge;strokeWidth=1;strokeColor=#0a11d3;fillColor=none;startArrow=none;startFill=0;startSize=6;endArrow=none;endFill=0;endSize=6;rounded=1;dashed=1;fixDash=1;dashPattern=;gliffyId=53;" parent="1" edge="1">
                    <mxGeometry width="184.43197631835938" height="20.463008880615234" relative="1" as="geometry">
                        <mxPoint x="4466.48828125" y="3176.037109375" as="sourcePoint"/>
                        <mxPoint x="4650.92041015625" y="3175.0966796875" as="targetPoint"/>
                        <Array as="points">
                            <mxPoint x="4471.34716796875" y="3184.194091796875"/>
                            <mxPoint x="4492.302001953125" y="3191.03759765625"/>
                            <mxPoint x="4520.185546875" y="3195.181884765625"/>
                            <mxPoint x="4563.869140625" y="3195.5595703125"/>
                            <mxPoint x="4614.845703125" y="3192.921142578125"/>
                            <mxPoint x="4644.61669921875" y="3183.322021484375"/>
                        </Array>
                    </mxGeometry>
                </mxCell>
                <mxCell id="r-MVeTWE6W_a-qISFKLb-40" style="shape=filledEdge;strokeWidth=1;strokeColor=#0a11d3;fillColor=none;startArrow=none;startFill=0;startSize=6;endArrow=none;endFill=0;endSize=6;rounded=1;dashed=1;fixDash=1;dashPattern=;gliffyId=54;" parent="1" edge="1">
                    <mxGeometry width="184.43197631835938" height="20.463008880615234" relative="1" as="geometry">
                        <mxPoint x="4464.203857421875" y="3106.96142578125" as="sourcePoint"/>
                        <mxPoint x="4648.6357421875" y="3106.02099609375" as="targetPoint"/>
                        <Array as="points">
                            <mxPoint x="4469.062744140625" y="3115.118408203125"/>
                            <mxPoint x="4490.017578125" y="3121.9619140625"/>
                            <mxPoint x="4517.9013671875" y="3126.106201171875"/>
                            <mxPoint x="4561.58447265625" y="3126.48388671875"/>
                            <mxPoint x="4612.5615234375" y="3123.845458984375"/>
                            <mxPoint x="4642.33251953125" y="3114.246337890625"/>
                        </Array>
                    </mxGeometry>
                </mxCell>
                <mxCell id="r-MVeTWE6W_a-qISFKLb-41" style="shape=ellipse;perimeter=ellipsePerimeter;shadow=0;strokeWidth=1;fillColor=#fff;strokeColor=#0a11d3;opacity=100.0;dashed=1;fixDash=1;dashPattern=;gliffyId=55;" parent="1" vertex="1">
                    <mxGeometry x="4461.863037109375" y="3022.91845703125" width="183.0591278076172" height="37.02233123779297" as="geometry"/>
                </mxCell>
                <mxCell id="r-MVeTWE6W_a-qISFKLb-42" style="shape=ellipse;perimeter=ellipsePerimeter;shadow=0;strokeWidth=1;fillColor=#fff;strokeColor=#0a11d3;opacity=100.0;dashed=1;fixDash=1;dashPattern=;gliffyId=56;" parent="1" vertex="1">
                    <mxGeometry x="4611.21142578125" y="3074.245361328125" width="26.829069137573242" height="29.117752075195312" as="geometry"/>
                </mxCell>
                <mxCell id="r-MVeTWE6W_a-qISFKLb-43" style="shape=ellipse;perimeter=ellipsePerimeter;shadow=0;strokeWidth=1;fillColor=#fff;strokeColor=#0a11d3;opacity=100.0;dashed=1;fixDash=1;dashPattern=;gliffyId=57;" parent="1" vertex="1">
                    <mxGeometry x="4611.21142578125" y="3138.15869140625" width="26.829069137573242" height="29.117752075195312" as="geometry"/>
                </mxCell>
                <mxCell id="r-MVeTWE6W_a-qISFKLb-44" style="shape=ellipse;perimeter=ellipsePerimeter;shadow=0;strokeWidth=1;fillColor=#fff;strokeColor=#0a11d3;opacity=100.0;dashed=1;fixDash=1;dashPattern=;gliffyId=58;" parent="1" vertex="1">
                    <mxGeometry x="4611.21142578125" y="3207.6240234375" width="26.829069137573242" height="29.117752075195312" as="geometry"/>
                </mxCell>
                <mxCell id="r-MVeTWE6W_a-qISFKLb-45" style="shape=filledEdge;strokeWidth=1;strokeColor=#000000;fillColor=none;startArrow=none;startFill=0;startSize=6;endArrow=open;endFill=0;endSize=6;rounded=1;dashed=1;fixDash=1;dashPattern=;gliffyId=59;" parent="1" edge="1">
                    <mxGeometry width="190" height="1.4285714626312256" relative="1" as="geometry">
                        <mxPoint x="4263.511962890625" y="3144.4365234375" as="sourcePoint"/>
                        <mxPoint x="4453.511962890625" y="3145.864990234375" as="targetPoint"/>
                    </mxGeometry>
                </mxCell>
                <mxCell id="r-MVeTWE6W_a-qISFKLb-46" style="shape=rect;shadow=0;strokeWidth=1;fillColor=none;pointerEvents=0;strokeColor=#000000;opacity=100.0;dashed=1;fixDash=1;dashPattern=;gliffyId=60;" parent="1" vertex="1">
                    <mxGeometry x="5842.9853515625" y="2909.5966796875" width="355.12286376953125" height="212.5370330810547" as="geometry"/>
                </mxCell>
                <mxCell id="r-MVeTWE6W_a-qISFKLb-47" style="shape=filledEdge;strokeWidth=1;strokeColor=#000000;fillColor=none;startArrow=none;startFill=0;startSize=6;endArrow=none;endFill=0;endSize=6;rounded=1;dashed=1;fixDash=1;dashPattern=;gliffyId=61;edgeStyle=orthogonalEdgeStyle;" parent="1" edge="1">
                    <mxGeometry width="357.7834167480469" relative="1" as="geometry">
                        <mxPoint x="5839.99853515625" y="2939.35546875" as="sourcePoint"/>
                        <mxPoint x="6197.78173828125" y="2939.35546875" as="targetPoint"/>
                    </mxGeometry>
                </mxCell>
                <mxCell id="r-MVeTWE6W_a-qISFKLb-48" style="shape=ellipse;perimeter=ellipsePerimeter;shadow=0;strokeWidth=1;fillColor=#fa5252;strokeColor=#000000;opacity=100.0;dashed=1;fixDash=1;dashPattern=;gliffyId=62;" parent="1" vertex="1">
                    <mxGeometry x="5855.4482421875" y="2921.458251953125" width="13.89001178741455" height="13.89001178741455" as="geometry"/>
                </mxCell>
                <mxCell id="r-MVeTWE6W_a-qISFKLb-49" style="shape=ellipse;perimeter=ellipsePerimeter;shadow=0;strokeWidth=1;fillColor=#fab005;strokeColor=#000000;opacity=100.0;dashed=1;fixDash=1;dashPattern=;gliffyId=63;" parent="1" vertex="1">
                    <mxGeometry x="5883.94677734375" y="2921.458251953125" width="13.89001178741455" height="13.89001178741455" as="geometry"/>
                </mxCell>
                <mxCell id="r-MVeTWE6W_a-qISFKLb-50" style="shape=ellipse;perimeter=ellipsePerimeter;shadow=0;strokeWidth=1;fillColor=#40c057;strokeColor=#000000;opacity=100.0;dashed=1;fixDash=1;dashPattern=;gliffyId=64;" parent="1" vertex="1">
                    <mxGeometry x="5913.697265625" y="2922.7099609375" width="13.89001178741455" height="13.89001178741455" as="geometry"/>
                </mxCell>
                <mxCell id="r-MVeTWE6W_a-qISFKLb-51" style="shape=ellipse;perimeter=ellipsePerimeter;shadow=0;strokeWidth=1;fillColor=#04aaf7;strokeColor=#000000;opacity=90.0;dashed=1;fixDash=1;dashPattern=;gliffyId=65;" parent="1" vertex="1">
                    <mxGeometry x="5958.20263671875" y="2967.2861328125" width="118.63047790527344" height="118.63047790527344" as="geometry"/>
                </mxCell>
                <mxCell id="r-MVeTWE6W_a-qISFKLb-52" style="shape=filledEdge;strokeWidth=1;strokeColor=#087f5b;fillColor=none;startArrow=none;startFill=0;startSize=6;endArrow=none;endFill=0;endSize=6;rounded=1;dashed=1;fixDash=1;dashPattern=;gliffyId=66;" parent="1" edge="1">
                    <mxGeometry width="78.3818359375" height="67.87098693847656" relative="1" as="geometry">
                        <mxPoint x="6033.396484375" y="3012.33984375" as="sourcePoint"/>
                        <mxPoint x="6033.396484375" y="3012.33984375" as="targetPoint"/>
                        <Array as="points">
                            <mxPoint x="6028.31298828125" y="3011.1884765625"/>
                            <mxPoint x="6012.369140625" y="2994.924072265625"/>
                            <mxPoint x="6001.85693359375" y="3000.266845703125"/>
                            <mxPoint x="5998.37451171875" y="3018.930419921875"/>
                            <mxPoint x="6002.103515625" y="3031.056396484375"/>
                            <mxPoint x="5985.01025390625" y="3037.015869140625"/>
                            <mxPoint x="5985.62451171875" y="3050.225830078125"/>
                            <mxPoint x="5999.015625" y="3049.41162109375"/>
                            <mxPoint x="6009.25048828125" y="3038.65869140625"/>
                            <mxPoint x="6023.34375" y="3061.956787109375"/>
                            <mxPoint x="6032.2431640625" y="3062.794921875"/>
                            <mxPoint x="6022.9072265625" y="3025.670166015625"/>
                            <mxPoint x="6037.2470703125" y="3024.412841796875"/>
                            <mxPoint x="6042.1787109375" y="3028.633056640625"/>
                            <mxPoint x="6059.04443359375" y="3028.633056640625"/>
                            <mxPoint x="6063.39208984375" y="3014.10302734375"/>
                            <mxPoint x="6045.11865234375" y="3015.423095703125"/>
                            <mxPoint x="6048.63134765625" y="2996.34521484375"/>
                            <mxPoint x="6040.2626953125" y="2997.49658203125"/>
                            <mxPoint x="6032.736328125" y="3009.77685546875"/>
                        </Array>
                    </mxGeometry>
                </mxCell>
                <mxCell id="r-MVeTWE6W_a-qISFKLb-53" style="shape=filledEdge;strokeWidth=1;strokeColor=#000000;fillColor=none;startArrow=none;startFill=0;startSize=6;endArrow=none;endFill=0;endSize=6;rounded=1;dashed=1;fixDash=1;dashPattern=;gliffyId=67;edgeStyle=orthogonalEdgeStyle;" parent="1" edge="1">
                    <mxGeometry width="116.89466857910156" relative="1" as="geometry">
                        <mxPoint x="5961.1435546875" y="3025.498291015625" as="sourcePoint"/>
                        <mxPoint x="6078.0380859375" y="3025.498291015625" as="targetPoint"/>
                    </mxGeometry>
                </mxCell>
                <mxCell id="r-MVeTWE6W_a-qISFKLb-54" style="shape=filledEdge;strokeWidth=1;strokeColor=#000000;fillColor=none;startArrow=none;startFill=0;startSize=6;endArrow=none;endFill=0;endSize=6;rounded=1;dashed=1;fixDash=1;dashPattern=;gliffyId=68;" parent="1" edge="1">
                    <mxGeometry width="81.41535186767578" height="15.85953140258789" relative="1" as="geometry">
                        <mxPoint x="5975.29296875" y="2982.637939453125" as="sourcePoint"/>
                        <mxPoint x="6056.70849609375" y="2981.908935546875" as="targetPoint"/>
                        <Array as="points">
                            <mxPoint x="5977.43798828125" y="2988.959716796875"/>
                            <mxPoint x="5986.68798828125" y="2994.263916015625"/>
                            <mxPoint x="5998.9970703125" y="2997.475830078125"/>
                            <mxPoint x="6018.28076171875" y="2997.7685546875"/>
                            <mxPoint x="6040.78369140625" y="2995.7236328125"/>
                            <mxPoint x="6053.92578125" y="2988.283935546875"/>
                        </Array>
                    </mxGeometry>
                </mxCell>
                <mxCell id="r-MVeTWE6W_a-qISFKLb-55" style="shape=ellipse;perimeter=ellipsePerimeter;shadow=0;strokeWidth=1;fillColor=none;pointerEvents=0;strokeColor=#000000;opacity=90.0;dashed=1;fixDash=1;dashPattern=;gliffyId=69;" parent="1" vertex="1">
                    <mxGeometry x="5997.7138671875" y="2963.447021484375" width="43.12118148803711" height="124.46784210205078" as="geometry"/>
                </mxCell>
                <mxCell id="r-MVeTWE6W_a-qISFKLb-56" style="shape=filledEdge;strokeWidth=1;strokeColor=#000000;fillColor=none;startArrow=none;startFill=0;startSize=6;endArrow=none;endFill=0;endSize=6;rounded=1;dashed=1;fixDash=1;dashPattern=;gliffyId=70;" parent="1" edge="1">
                    <mxGeometry width="81.41535186767578" height="16.37287712097168" relative="1" as="geometry">
                        <mxPoint x="5979.5029296875" y="3070.76904296875" as="sourcePoint"/>
                        <mxPoint x="6060.91845703125" y="3071.521484375" as="targetPoint"/>
                        <Array as="points">
                            <mxPoint x="5990.89794921875" y="3058.766845703125"/>
                            <mxPoint x="6003.20703125" y="3055.450927734375"/>
                            <mxPoint x="6022.49072265625" y="3055.148681640625"/>
                            <mxPoint x="6044.99365234375" y="3057.259765625"/>
                            <mxPoint x="6058.1357421875" y="3064.940185546875"/>
                        </Array>
                    </mxGeometry>
                </mxCell>
                <mxCell id="r-MVeTWE6W_a-qISFKLb-57" style="shape=rect;shadow=0;strokeWidth=1;fillColor=#ced4da;strokeColor=#000000;opacity=100.0;dashed=1;fixDash=1;dashPattern=;gliffyId=71;" parent="1" vertex="1">
                    <mxGeometry x="5931.50830078125" y="2678.784423828125" width="121.88972473144531" height="186.41404724121094" as="geometry"/>
                </mxCell>
                <mxCell id="r-MVeTWE6W_a-qISFKLb-58" style="shape=rect;shadow=0;strokeWidth=1;fillColor=#fff;strokeColor=#000000;opacity=100.0;dashed=1;fixDash=1;dashPattern=;gliffyId=72;" parent="1" vertex="1">
                    <mxGeometry x="5945.46337890625" y="2692.99658203125" width="96.04532623291016" height="142.5723419189453" as="geometry"/>
                </mxCell>
                <mxCell id="r-MVeTWE6W_a-qISFKLb-59" style="shape=ellipse;perimeter=ellipsePerimeter;shadow=0;strokeWidth=1;fillColor=#fff;strokeColor=#000000;opacity=100.0;dashed=1;fixDash=1;dashPattern=;gliffyId=73;" parent="1" vertex="1">
                    <mxGeometry x="5983.6513671875" y="2841.67041015625" width="19.669645309448242" height="19.669645309448242" as="geometry"/>
                </mxCell>
                <mxCell id="r-MVeTWE6W_a-qISFKLb-60" style="shape=rect;shadow=0;strokeWidth=1;fillColor=#fab005;strokeColor=#000000;gradientColor=#FFFFAF;gradientDirection=north;opacity=100.0;dashed=1;fixDash=1;dashPattern=;gliffyId=74;" parent="1" vertex="1">
                    <mxGeometry x="5959.71435546875" y="2711.145263671875" width="67.543212890625" height="34.23386764526367" as="geometry"/>
                </mxCell>
                <mxCell id="r-MVeTWE6W_a-qISFKLb-61" style="shape=rect;shadow=0;strokeWidth=1;fillColor=#fab005;strokeColor=#000000;gradientColor=#FFFFAF;gradientDirection=north;opacity=100.0;dashed=1;fixDash=1;dashPattern=;gliffyId=75;" parent="1" vertex="1">
                    <mxGeometry x="5959.71435546875" y="2772.34765625" width="67.543212890625" height="34.23386764526367" as="geometry"/>
                </mxCell>
                <mxCell id="r-MVeTWE6W_a-qISFKLb-62" style="shape=rect;shadow=0;strokeWidth=1;fillColor=#ced4da;strokeColor=#000000;opacity=100.0;dashed=1;fixDash=1;dashPattern=;gliffyId=76;" parent="1" vertex="1">
                    <mxGeometry x="5937.68603515625" y="3184.301025390625" width="121.88972473144531" height="186.41404724121094" as="geometry"/>
                </mxCell>
                <mxCell id="r-MVeTWE6W_a-qISFKLb-63" style="shape=rect;shadow=0;strokeWidth=1;fillColor=#fff;strokeColor=#000000;opacity=100.0;dashed=1;fixDash=1;dashPattern=;gliffyId=77;" parent="1" vertex="1">
                    <mxGeometry x="5951.64111328125" y="3198.51318359375" width="96.04532623291016" height="142.5723419189453" as="geometry"/>
                </mxCell>
                <mxCell id="r-MVeTWE6W_a-qISFKLb-64" style="shape=ellipse;perimeter=ellipsePerimeter;shadow=0;strokeWidth=1;fillColor=#fff;strokeColor=#000000;opacity=100.0;dashed=1;fixDash=1;dashPattern=;gliffyId=78;" parent="1" vertex="1">
                    <mxGeometry x="5989.8291015625" y="3347.18701171875" width="19.669645309448242" height="19.669645309448242" as="geometry"/>
                </mxCell>
                <mxCell id="r-MVeTWE6W_a-qISFKLb-65" style="shape=rect;shadow=0;strokeWidth=1;fillColor=#fab005;strokeColor=#000000;gradientColor=#FFFFAF;gradientDirection=north;opacity=100.0;dashed=1;fixDash=1;dashPattern=;gliffyId=79;" parent="1" vertex="1">
                    <mxGeometry x="5965.89208984375" y="3216.661865234375" width="67.543212890625" height="34.23386764526367" as="geometry"/>
                </mxCell>
                <mxCell id="r-MVeTWE6W_a-qISFKLb-66" style="shape=rect;shadow=0;strokeWidth=1;fillColor=#fab005;strokeColor=#000000;gradientColor=#FFFFAF;gradientDirection=north;opacity=100.0;dashed=1;fixDash=1;dashPattern=;gliffyId=80;" parent="1" vertex="1">
                    <mxGeometry x="5965.89208984375" y="3277.8642578125" width="67.543212890625" height="34.23386764526367" as="geometry"/>
                </mxCell>
                <mxCell id="r-MVeTWE6W_a-qISFKLb-67" style="shape=rect;shadow=0;strokeWidth=1;fillColor=none;pointerEvents=0;strokeColor=#000000;opacity=100.0;dashed=1;fixDash=1;dashPattern=;gliffyId=81;" parent="1" vertex="1">
                    <mxGeometry x="5835.84375" y="2416.0965576171875" width="355.12286376953125" height="212.5370330810547" as="geometry"/>
                </mxCell>
                <mxCell id="r-MVeTWE6W_a-qISFKLb-68" style="shape=filledEdge;strokeWidth=1;strokeColor=#000000;fillColor=none;startArrow=none;startFill=0;startSize=6;endArrow=none;endFill=0;endSize=6;rounded=1;dashed=1;fixDash=1;dashPattern=;gliffyId=82;edgeStyle=orthogonalEdgeStyle;" parent="1" edge="1">
                    <mxGeometry width="357.7834167480469" relative="1" as="geometry">
                        <mxPoint x="5832.85693359375" y="2445.85546875" as="sourcePoint"/>
                        <mxPoint x="6190.64013671875" y="2445.85546875" as="targetPoint"/>
                    </mxGeometry>
                </mxCell>
                <mxCell id="r-MVeTWE6W_a-qISFKLb-69" style="shape=ellipse;perimeter=ellipsePerimeter;shadow=0;strokeWidth=1;fillColor=#fa5252;strokeColor=#000000;opacity=100.0;dashed=1;fixDash=1;dashPattern=;gliffyId=83;" parent="1" vertex="1">
                    <mxGeometry x="5848.306640625" y="2427.9583740234375" width="13.89001178741455" height="13.89001178741455" as="geometry"/>
                </mxCell>
                <mxCell id="r-MVeTWE6W_a-qISFKLb-70" style="shape=ellipse;perimeter=ellipsePerimeter;shadow=0;strokeWidth=1;fillColor=#fab005;strokeColor=#000000;opacity=100.0;dashed=1;fixDash=1;dashPattern=;gliffyId=84;" parent="1" vertex="1">
                    <mxGeometry x="5876.80517578125" y="2427.9583740234375" width="13.89001178741455" height="13.89001178741455" as="geometry"/>
                </mxCell>
                <mxCell id="r-MVeTWE6W_a-qISFKLb-71" style="shape=ellipse;perimeter=ellipsePerimeter;shadow=0;strokeWidth=1;fillColor=#40c057;strokeColor=#000000;opacity=100.0;dashed=1;fixDash=1;dashPattern=;gliffyId=85;" parent="1" vertex="1">
                    <mxGeometry x="5906.5556640625" y="2429.2099609375" width="13.89001178741455" height="13.89001178741455" as="geometry"/>
                </mxCell>
                <mxCell id="r-MVeTWE6W_a-qISFKLb-72" style="shape=ellipse;perimeter=ellipsePerimeter;shadow=0;strokeWidth=1;fillColor=#04aaf7;strokeColor=#000000;opacity=90.0;dashed=1;fixDash=1;dashPattern=;gliffyId=86;" parent="1" vertex="1">
                    <mxGeometry x="5951.0615234375" y="2473.7861328125" width="118.63047790527344" height="118.63047790527344" as="geometry"/>
                </mxCell>
                <mxCell id="r-MVeTWE6W_a-qISFKLb-73" style="shape=filledEdge;strokeWidth=1;strokeColor=#087f5b;fillColor=none;startArrow=none;startFill=0;startSize=6;endArrow=none;endFill=0;endSize=6;rounded=1;dashed=1;fixDash=1;dashPattern=;gliffyId=87;" parent="1" edge="1">
                    <mxGeometry width="78.3818359375" height="67.87098693847656" relative="1" as="geometry">
                        <mxPoint x="6026.25537109375" y="2518.83984375" as="sourcePoint"/>
                        <mxPoint x="6026.25537109375" y="2518.83984375" as="targetPoint"/>
                        <Array as="points">
                            <mxPoint x="6021.171875" y="2517.6884765625"/>
                            <mxPoint x="6005.22802734375" y="2501.424072265625"/>
                            <mxPoint x="5994.7158203125" y="2506.766845703125"/>
                            <mxPoint x="5991.2333984375" y="2525.430419921875"/>
                            <mxPoint x="5994.96240234375" y="2537.556396484375"/>
                            <mxPoint x="5977.869140625" y="2543.515869140625"/>
                            <mxPoint x="5978.4833984375" y="2556.725830078125"/>
                            <mxPoint x="5991.87451171875" y="2555.91162109375"/>
                            <mxPoint x="6002.109375" y="2545.15869140625"/>
                            <mxPoint x="6016.20263671875" y="2568.456787109375"/>
                            <mxPoint x="6025.10205078125" y="2569.294921875"/>
                            <mxPoint x="6015.76611328125" y="2532.170166015625"/>
                            <mxPoint x="6030.10595703125" y="2530.912841796875"/>
                            <mxPoint x="6035.03759765625" y="2535.133056640625"/>
                            <mxPoint x="6051.9033203125" y="2535.133056640625"/>
                            <mxPoint x="6056.2509765625" y="2520.60302734375"/>
                            <mxPoint x="6037.9775390625" y="2521.923095703125"/>
                            <mxPoint x="6041.490234375" y="2502.84521484375"/>
                            <mxPoint x="6033.12158203125" y="2503.9967041015625"/>
                            <mxPoint x="6025.59521484375" y="2516.27685546875"/>
                        </Array>
                    </mxGeometry>
                </mxCell>
                <mxCell id="r-MVeTWE6W_a-qISFKLb-74" style="shape=filledEdge;strokeWidth=1;strokeColor=#000000;fillColor=none;startArrow=none;startFill=0;startSize=6;endArrow=none;endFill=0;endSize=6;rounded=1;dashed=1;fixDash=1;dashPattern=;gliffyId=88;edgeStyle=orthogonalEdgeStyle;" parent="1" edge="1">
                    <mxGeometry width="116.89466857910156" relative="1" as="geometry">
                        <mxPoint x="5954.00244140625" y="2531.998291015625" as="sourcePoint"/>
                        <mxPoint x="6070.89697265625" y="2531.998291015625" as="targetPoint"/>
                    </mxGeometry>
                </mxCell>
                <mxCell id="r-MVeTWE6W_a-qISFKLb-75" style="shape=filledEdge;strokeWidth=1;strokeColor=#000000;fillColor=none;startArrow=none;startFill=0;startSize=6;endArrow=none;endFill=0;endSize=6;rounded=1;dashed=1;fixDash=1;dashPattern=;gliffyId=89;" parent="1" edge="1">
                    <mxGeometry width="81.41535186767578" height="15.85953140258789" relative="1" as="geometry">
                        <mxPoint x="5968.15185546875" y="2489.1378173828125" as="sourcePoint"/>
                        <mxPoint x="6049.5673828125" y="2488.408935546875" as="targetPoint"/>
                        <Array as="points">
                            <mxPoint x="5970.296875" y="2495.459716796875"/>
                            <mxPoint x="5979.546875" y="2500.763671875"/>
                            <mxPoint x="5991.85595703125" y="2503.9757080078125"/>
                            <mxPoint x="6011.1396484375" y="2504.2684326171875"/>
                            <mxPoint x="6033.642578125" y="2502.2235107421875"/>
                            <mxPoint x="6046.78466796875" y="2494.783935546875"/>
                        </Array>
                    </mxGeometry>
                </mxCell>
                <mxCell id="r-MVeTWE6W_a-qISFKLb-76" style="shape=ellipse;perimeter=ellipsePerimeter;shadow=0;strokeWidth=1;fillColor=none;pointerEvents=0;strokeColor=#000000;opacity=90.0;dashed=1;fixDash=1;dashPattern=;gliffyId=90;" parent="1" vertex="1">
                    <mxGeometry x="5990.572265625" y="2469.9468994140625" width="43.12118148803711" height="124.46784210205078" as="geometry"/>
                </mxCell>
                <mxCell id="r-MVeTWE6W_a-qISFKLb-77" style="shape=filledEdge;strokeWidth=1;strokeColor=#000000;fillColor=none;startArrow=none;startFill=0;startSize=6;endArrow=none;endFill=0;endSize=6;rounded=1;dashed=1;fixDash=1;dashPattern=;gliffyId=91;" parent="1" edge="1">
                    <mxGeometry width="81.41535186767578" height="16.37287712097168" relative="1" as="geometry">
                        <mxPoint x="5972.361328125" y="2577.26904296875" as="sourcePoint"/>
                        <mxPoint x="6053.77685546875" y="2578.021484375" as="targetPoint"/>
                        <Array as="points">
                            <mxPoint x="5983.75634765625" y="2565.266845703125"/>
                            <mxPoint x="5996.0654296875" y="2561.950927734375"/>
                            <mxPoint x="6015.34912109375" y="2561.648681640625"/>
                            <mxPoint x="6037.85205078125" y="2563.759765625"/>
                            <mxPoint x="6050.994140625" y="2571.440185546875"/>
                        </Array>
                    </mxGeometry>
                </mxCell>
                <mxCell id="r-MVeTWE6W_a-qISFKLb-78" value="&lt;div style='width: 375.0px;height:auto;word-break: break-word;'&gt;&lt;div align=&quot;center&quot;&gt;&lt;span style=&quot;font-family: Arial; font-size: 20px; line-height: 0;&quot;&gt;&lt;span style=&quot; line-height: 0;&quot;&gt;&lt;span style=&quot;color: #000000; font-size: 20px; line-height: 16.5px;&quot;&gt;API&lt;/span&gt;&lt;br&gt;&lt;/span&gt;&lt;/span&gt;&lt;/div&gt;&lt;/div&gt;" style="shape=rect;rounded=1;arcSize=15;absoluteArcSize=1;shadow=0;strokeWidth=1;fillColor=none;pointerEvents=0;strokeColor=#000000;gradientColor=#FFFFFF;gradientDirection=north;opacity=100.0;dashed=1;fixDash=1;dashPattern=;html=1;nl2Br=0;verticalAlign=middle;align=center;spacingLeft=2.0;spacingRight=0;whiteSpace=wrap;gliffyId=92;" parent="1" vertex="1">
                    <mxGeometry x="4839.2021484375" y="2481.9365234375" width="382" height="908" as="geometry"/>
                </mxCell>
                <mxCell id="r-MVeTWE6W_a-qISFKLb-79" style="shape=filledEdge;strokeWidth=1;strokeColor=#000000;fillColor=none;startArrow=none;startFill=0;startSize=6;endArrow=open;endFill=0;endSize=6;rounded=1;dashed=1;fixDash=1;dashPattern=;gliffyId=94;" parent="1" edge="1">
                    <mxGeometry width="164" height="1.7983150482177734" relative="1" as="geometry">
                        <mxPoint x="4659.2021484375" y="3142.9365234375" as="sourcePoint"/>
                        <mxPoint x="4823.2021484375" y="3141.13818359375" as="targetPoint"/>
                    </mxGeometry>
                </mxCell>
                <mxCell id="r-MVeTWE6W_a-qISFKLb-80" style="shape=filledEdge;strokeWidth=1;strokeColor=#000000;fillColor=none;startArrow=none;startFill=0;startSize=6;endArrow=open;endFill=0;endSize=6;rounded=1;dashed=1;fixDash=1;dashPattern=;html=1;nl2Br=0;gliffyId=95;" parent="1" edge="1">
                    <mxGeometry width="562.6428833007812" height="199.07696533203125" relative="1" as="geometry">
                        <mxPoint x="5248.7021484375" y="2730.3720703125" as="sourcePoint"/>
                        <mxPoint x="5811.34521484375" y="2531.295166015625" as="targetPoint"/>
                    </mxGeometry>
                </mxCell>
                <mxCell id="r-MVeTWE6W_a-qISFKLb-81" value="&lt;div style=&quot;width: 555.6429px;height:auto;word-break: break-word;&quot;&gt;&lt;div align=&quot;center&quot;&gt;&lt;span style=&quot;font-family: Arial; font-size: 20px; line-height: 0;&quot;&gt;&lt;span style=&quot; line-height: 0;&quot;&gt;&lt;span style=&quot;color: #000000; font-size: 20px; line-height: 16.5px;&quot;&gt;Total/average delay of all trains in &lt;br&gt;station/country&lt;/span&gt;&lt;br&gt;&lt;/span&gt;&lt;/span&gt;&lt;/div&gt;&lt;/div&gt;" style="text;html=1;nl2Br=0;points=[];labelBackgroundColor=none;html=1;nl2Br=0;verticalAlign=middle;align=center;spacingLeft=0.0;spacingRight=0;whiteSpace=wrap;gliffyId=96;" parent="r-MVeTWE6W_a-qISFKLb-80" vertex="1">
                    <mxGeometry relative="1" as="geometry">
                        <mxPoint x="-18" y="-67" as="offset"/>
                    </mxGeometry>
                </mxCell>
                <mxCell id="r-MVeTWE6W_a-qISFKLb-82" style="shape=filledEdge;strokeWidth=1;strokeColor=#000000;fillColor=none;startArrow=none;startFill=0;startSize=6;endArrow=open;endFill=0;endSize=6;rounded=1;dashed=1;fixDash=1;dashPattern=;html=1;nl2Br=0;gliffyId=97;" parent="1" edge="1">
                    <mxGeometry width="572.5714111328125" height="46.61894989013672" relative="1" as="geometry">
                        <mxPoint x="5241.2021484375" y="3059.78515625" as="sourcePoint"/>
                        <mxPoint x="5813.7734375" y="3013.166259765625" as="targetPoint"/>
                    </mxGeometry>
                </mxCell>
                <mxCell id="r-MVeTWE6W_a-qISFKLb-83" value="&lt;div style=&quot;width: 565.5714px;height:auto;word-break: break-word;&quot;&gt;&lt;div align=&quot;center&quot;&gt;&lt;span style=&quot;font-family: Arial; font-size: 20px; line-height: 0;&quot;&gt;&lt;span style=&quot; line-height: 0;&quot;&gt;&lt;span style=&quot;color: #000000; font-size: 20px; line-height: 16.5px;&quot;&gt;Total time lost of passengers in &lt;br&gt;train/station/country due to delays&lt;/span&gt;&lt;br&gt;&lt;/span&gt;&lt;/span&gt;&lt;/div&gt;&lt;/div&gt;" style="text;html=1;nl2Br=0;points=[];labelBackgroundColor=none;html=1;nl2Br=0;verticalAlign=middle;align=center;spacingLeft=0.0;spacingRight=0;whiteSpace=wrap;gliffyId=98;" parent="r-MVeTWE6W_a-qISFKLb-82" vertex="1">
                    <mxGeometry relative="1" as="geometry">
                        <mxPoint x="4" y="-37" as="offset"/>
                    </mxGeometry>
                </mxCell>
                <mxCell id="r-MVeTWE6W_a-qISFKLb-84" style="shape=filledEdge;strokeWidth=1;strokeColor=#000000;fillColor=none;startArrow=none;startFill=0;startSize=6;endArrow=open;endFill=0;endSize=6;rounded=1;dashed=1;fixDash=1;dashPattern=;html=1;nl2Br=0;gliffyId=99;" parent="1" edge="1">
                    <mxGeometry width="668.7142944335938" height="83.72272491455078" relative="1" as="geometry">
                        <mxPoint x="5242.2021484375" y="2867.998291015625" as="sourcePoint"/>
                        <mxPoint x="5910.91650390625" y="2784.275634765625" as="targetPoint"/>
                    </mxGeometry>
                </mxCell>
                <mxCell id="r-MVeTWE6W_a-qISFKLb-85" value="&lt;div style=&quot;width: 661.7143px;height:auto;word-break: break-word;&quot;&gt;&lt;div align=&quot;center&quot;&gt;&lt;span style=&quot;font-family: Arial; font-size: 20px; line-height: 0;&quot;&gt;&lt;span style=&quot; line-height: 0;&quot;&gt;&lt;span style=&quot;color: #000000; font-size: 20px; line-height: 16.5px;&quot;&gt;Predicted delay of a train&lt;/span&gt;&lt;br&gt;&lt;/span&gt;&lt;/span&gt;&lt;/div&gt;&lt;/div&gt;" style="text;html=1;nl2Br=0;points=[];labelBackgroundColor=none;html=1;nl2Br=0;verticalAlign=middle;align=center;spacingLeft=0.0;spacingRight=0;whiteSpace=wrap;gliffyId=100;" parent="r-MVeTWE6W_a-qISFKLb-84" vertex="1">
                    <mxGeometry relative="1" as="geometry">
                        <mxPoint x="-7" y="-25" as="offset"/>
                    </mxGeometry>
                </mxCell>
                <mxCell id="r-MVeTWE6W_a-qISFKLb-86" style="shape=filledEdge;strokeWidth=1;strokeColor=#000000;fillColor=none;startArrow=none;startFill=0;startSize=6;endArrow=open;endFill=0;endSize=6;rounded=1;dashed=1;fixDash=1;dashPattern=;html=1;nl2Br=0;gliffyId=101;" parent="1" edge="1">
                    <mxGeometry width="691.4285888671875" height="75.89353942871094" relative="1" as="geometry">
                        <mxPoint x="5229.2021484375" y="3194.4990234375" as="sourcePoint"/>
                        <mxPoint x="5920.630859375" y="3270.392578125" as="targetPoint"/>
                    </mxGeometry>
                </mxCell>
                <mxCell id="r-MVeTWE6W_a-qISFKLb-87" value="&lt;div style=&quot;width: 684.4286px;height:auto;word-break: break-word;&quot;&gt;&lt;div align=&quot;center&quot;&gt;&lt;span style=&quot;font-family: Arial; font-size: 20px; line-height: 0;&quot;&gt;&lt;span style=&quot; line-height: 0;&quot;&gt;&lt;span style=&quot;color: #000000; font-size: 20px; line-height: 16.5px;&quot;&gt;Average delay of a train in the past N days&lt;/span&gt;&lt;br&gt;&lt;/span&gt;&lt;/span&gt;&lt;/div&gt;&lt;/div&gt;" style="text;html=1;nl2Br=0;points=[];labelBackgroundColor=none;html=1;nl2Br=0;verticalAlign=middle;align=center;spacingLeft=0.0;spacingRight=0;whiteSpace=wrap;gliffyId=102;" parent="r-MVeTWE6W_a-qISFKLb-86" vertex="1">
                    <mxGeometry relative="1" as="geometry">
                        <mxPoint x="5" y="-33" as="offset"/>
                    </mxGeometry>
                </mxCell>
                <mxCell id="r-MVeTWE6W_a-qISFKLb-88" style="shape=rect;rounded=1;arcSize=15;absoluteArcSize=1;shadow=0;strokeWidth=1;fillColor=none;pointerEvents=0;strokeColor=#000000;gradientColor=#FFFFFF;gradientDirection=north;opacity=100.0;dashed=1;fixDash=1;dashPattern=;gliffyId=103;" parent="1" vertex="1">
                    <mxGeometry x="410" y="812.6031799316406" width="1067.25" height="492.5" as="geometry"/>
                </mxCell>
                <mxCell id="r-MVeTWE6W_a-qISFKLb-89" value="&lt;div style='width: 61.77594px;height:auto;word-break: break-word;'&gt;&lt;div align=&quot;left&quot;&gt;&lt;span style=&quot;font-family: Arial; font-size: 20px; line-height: 0;&quot;&gt;&lt;span style=&quot; line-height: 0;&quot;&gt;&lt;span style=&quot;color: #000000; font-size: 20px; line-height: 16.5px;&quot;&gt;Model&lt;/span&gt;&lt;br&gt;&lt;/span&gt;&lt;/span&gt;&lt;/div&gt;&lt;/div&gt;" style="text;html=1;nl2Br=0;html=1;nl2Br=0;verticalAlign=middle;align=left;spacingLeft=0.0;spacingRight=0;whiteSpace=wrap;gliffyId=104;" parent="1" vertex="1">
                    <mxGeometry x="440.75" y="781.8531799316406" width="64.77593994140625" height="25" as="geometry"/>
                </mxCell>
                <mxCell id="r-MVeTWE6W_a-qISFKLb-90" value="&lt;div style='width: 333.0px;height:auto;word-break: break-word;'&gt;&lt;div align=&quot;center&quot;&gt;&lt;span style=&quot;font-family: Arial; font-size: 20px; line-height: 0;&quot;&gt;&lt;span style=&quot; line-height: 0;&quot;&gt;&lt;span style=&quot;color: #000000; font-size: 20px; line-height: 16.5px;&quot;&gt;Route/Train&lt;/span&gt;&lt;br&gt;&lt;/span&gt;&lt;/span&gt;&lt;/div&gt;&lt;/div&gt;" style="shape=rect;rounded=1;arcSize=15;absoluteArcSize=1;shadow=0;strokeWidth=1;fillColor=none;pointerEvents=0;strokeColor=#000000;gradientColor=#FFFFFF;gradientDirection=north;opacity=100.0;dashed=1;fixDash=1;dashPattern=;html=1;nl2Br=0;verticalAlign=middle;align=center;spacingLeft=2.0;spacingRight=0;whiteSpace=wrap;gliffyId=105;" parent="1" vertex="1">
                    <mxGeometry x="1905.216064453125" y="857.6823120117188" width="340" height="145" as="geometry"/>
                </mxCell>
                <mxCell id="r-MVeTWE6W_a-qISFKLb-91" style="shape=filledEdge;strokeWidth=1;strokeColor=#000000;fillColor=none;startArrow=none;startFill=0;startSize=6;endArrow=open;endFill=0;endSize=6;rounded=1;dashed=1;fixDash=1;dashPattern=;gliffyId=107;" parent="1" edge="1">
                    <mxGeometry width="167.13485717773438" height="135.7554168701172" relative="1" as="geometry">
                        <mxPoint x="1981.8924560546875" y="1024.7507934570312" as="sourcePoint"/>
                        <mxPoint x="1814.757568359375" y="1160.5062255859375" as="targetPoint"/>
                    </mxGeometry>
                </mxCell>
                <mxCell id="r-MVeTWE6W_a-qISFKLb-92" style="shape=filledEdge;strokeWidth=1;strokeColor=#000000;fillColor=none;startArrow=none;startFill=0;startSize=6;endArrow=open;endFill=0;endSize=6;rounded=1;dashed=1;fixDash=1;dashPattern=;gliffyId=108;" parent="1" edge="1">
                    <mxGeometry width="1.4519001245498657" height="133.7083282470703" relative="1" as="geometry">
                        <mxPoint x="2073.3824462890625" y="1034.6823120117188" as="sourcePoint"/>
                        <mxPoint x="2074.8343505859375" y="1168.390625" as="targetPoint"/>
                    </mxGeometry>
                </mxCell>
                <mxCell id="r-MVeTWE6W_a-qISFKLb-93" style="shape=filledEdge;strokeWidth=1;strokeColor=#000000;fillColor=none;startArrow=none;startFill=0;startSize=6;endArrow=open;endFill=0;endSize=6;rounded=1;dashed=1;fixDash=1;dashPattern=;gliffyId=109;" parent="1" edge="1">
                    <mxGeometry width="114.1159896850586" height="138.09339904785156" relative="1" as="geometry">
                        <mxPoint x="2164.4906005859375" y="1034.6823120117188" as="sourcePoint"/>
                        <mxPoint x="2278.6065673828125" y="1172.7756958007812" as="targetPoint"/>
                    </mxGeometry>
                </mxCell>
                <mxCell id="r-MVeTWE6W_a-qISFKLb-94" value="&lt;div style='width: 233.0px;height:auto;word-break: break-word;'&gt;&lt;div align=&quot;center&quot;&gt;&lt;span style=&quot;font-family: Arial; font-size: 20px; line-height: 0;&quot;&gt;&lt;span style=&quot; line-height: 0;&quot;&gt;&lt;span style=&quot;color: #000000; font-size: 20px; line-height: 16.5px;&quot;&gt;Station&lt;/span&gt;&lt;br&gt;&lt;/span&gt;&lt;/span&gt;&lt;/div&gt;&lt;/div&gt;" style="shape=rect;rounded=1;arcSize=15;absoluteArcSize=1;shadow=0;strokeWidth=1;fillColor=none;pointerEvents=0;strokeColor=#000000;gradientColor=#FFFFFF;gradientDirection=north;opacity=100.0;dashed=1;fixDash=1;dashPattern=;html=1;nl2Br=0;verticalAlign=middle;align=center;spacingLeft=2.0;spacingRight=0;whiteSpace=wrap;gliffyId=110;" parent="1" vertex="1">
                    <mxGeometry x="1583.846923828125" y="1190.3906860351562" width="240" height="215" as="geometry"/>
                </mxCell>
                <mxCell id="r-MVeTWE6W_a-qISFKLb-95" value="&lt;div style='width: 210.0px;height:auto;word-break: break-word;'&gt;&lt;div align=&quot;center&quot;&gt;&lt;span style=&quot;font-family: Arial; font-size: 20px; line-height: 0;&quot;&gt;&lt;span style=&quot; line-height: 0;&quot;&gt;&lt;span style=&quot;color: #000000; font-size: 20px; line-height: 16.5px;&quot;&gt;Station&lt;/span&gt;&lt;br&gt;&lt;/span&gt;&lt;/span&gt;&lt;/div&gt;&lt;/div&gt;" style="shape=rect;rounded=1;arcSize=15;absoluteArcSize=1;shadow=0;strokeWidth=1;fillColor=none;pointerEvents=0;strokeColor=#000000;gradientColor=#FFFFFF;gradientDirection=north;opacity=100.0;dashed=1;fixDash=1;dashPattern=;html=1;nl2Br=0;verticalAlign=middle;align=center;spacingLeft=2.0;spacingRight=0;whiteSpace=wrap;gliffyId=112;" parent="1" vertex="1">
                    <mxGeometry x="1951.966064453125" y="1200.3906860351562" width="217" height="224" as="geometry"/>
                </mxCell>
                <mxCell id="r-MVeTWE6W_a-qISFKLb-96" value="&lt;div style='width: 193.0px;height:auto;word-break: break-word;'&gt;&lt;div align=&quot;center&quot;&gt;&lt;span style=&quot;font-family: Arial; font-size: 20px; line-height: 0;&quot;&gt;&lt;span style=&quot; line-height: 0;&quot;&gt;&lt;span style=&quot;color: #000000; font-size: 20px; line-height: 16.5px;&quot;&gt;Station&lt;/span&gt;&lt;br&gt;&lt;/span&gt;&lt;/span&gt;&lt;/div&gt;&lt;/div&gt;" style="shape=rect;rounded=1;arcSize=15;absoluteArcSize=1;shadow=0;strokeWidth=1;fillColor=none;pointerEvents=0;strokeColor=#000000;gradientColor=#FFFFFF;gradientDirection=north;opacity=100.0;dashed=1;fixDash=1;dashPattern=;html=1;nl2Br=0;verticalAlign=middle;align=center;spacingLeft=2.0;spacingRight=0;whiteSpace=wrap;gliffyId=114;" parent="1" vertex="1">
                    <mxGeometry x="2304.3231201171875" y="1191.8192138671875" width="200" height="248" as="geometry"/>
                </mxCell>
                <mxCell id="r-MVeTWE6W_a-qISFKLb-97" value="&lt;div style='width: 123.0px;height:auto;word-break: break-word;'&gt;&lt;div align=&quot;center&quot;&gt;&lt;span style=&quot;font-family: Arial; font-size: 20px; line-height: 0;&quot;&gt;&lt;span style=&quot; line-height: 0;&quot;&gt;&lt;span style=&quot;color: #000000; font-size: 20px; line-height: 16.5px;&quot;&gt;Delay&lt;/span&gt;&lt;br&gt;&lt;/span&gt;&lt;/span&gt;&lt;/div&gt;&lt;/div&gt;" style="shape=rect;rounded=1;arcSize=15;absoluteArcSize=1;shadow=0;strokeWidth=1;fillColor=none;pointerEvents=0;strokeColor=#000000;gradientColor=#FFFFFF;gradientDirection=north;opacity=100.0;dashed=1;fixDash=1;dashPattern=;html=1;nl2Br=0;verticalAlign=middle;align=center;spacingLeft=2.0;spacingRight=0;whiteSpace=wrap;gliffyId=116;" parent="1" vertex="1">
                    <mxGeometry x="2336.5103759765625" y="1346.6109008789062" width="130" height="61.66666793823242" as="geometry"/>
                </mxCell>
                <mxCell id="r-MVeTWE6W_a-qISFKLb-98" value="&lt;div style='width: 123.0px;height:auto;word-break: break-word;'&gt;&lt;div align=&quot;center&quot;&gt;&lt;span style=&quot;font-family: Arial; font-size: 20px; line-height: 0;&quot;&gt;&lt;span style=&quot; line-height: 0;&quot;&gt;&lt;span style=&quot;color: #000000; font-size: 20px; line-height: 16.5px;&quot;&gt;Delay&lt;/span&gt;&lt;br&gt;&lt;/span&gt;&lt;/span&gt;&lt;/div&gt;&lt;/div&gt;" style="shape=rect;rounded=1;arcSize=15;absoluteArcSize=1;shadow=0;strokeWidth=1;fillColor=none;pointerEvents=0;strokeColor=#000000;gradientColor=#FFFFFF;gradientDirection=north;opacity=100.0;dashed=1;fixDash=1;dashPattern=;html=1;nl2Br=0;verticalAlign=middle;align=center;spacingLeft=2.0;spacingRight=0;whiteSpace=wrap;gliffyId=118;" parent="1" vertex="1">
                    <mxGeometry x="1995.081787109375" y="1344.5870971679688" width="130" height="61.66666793823242" as="geometry"/>
                </mxCell>
                <mxCell id="r-MVeTWE6W_a-qISFKLb-99" value="&lt;div style='width: 123.0px;height:auto;word-break: break-word;'&gt;&lt;div align=&quot;center&quot;&gt;&lt;span style=&quot;font-family: Arial; font-size: 20px; line-height: 0;&quot;&gt;&lt;span style=&quot; line-height: 0;&quot;&gt;&lt;span style=&quot;color: #000000; font-size: 20px; line-height: 16.5px;&quot;&gt;Delay&lt;/span&gt;&lt;br&gt;&lt;/span&gt;&lt;/span&gt;&lt;/div&gt;&lt;/div&gt;" style="shape=rect;rounded=1;arcSize=15;absoluteArcSize=1;shadow=0;strokeWidth=1;fillColor=none;pointerEvents=0;strokeColor=#000000;gradientColor=#FFFFFF;gradientDirection=north;opacity=100.0;dashed=1;fixDash=1;dashPattern=;html=1;nl2Br=0;verticalAlign=middle;align=center;spacingLeft=2.0;spacingRight=0;whiteSpace=wrap;gliffyId=120;" parent="1" vertex="1">
                    <mxGeometry x="1639.367431640625" y="1325.777587890625" width="130" height="61.66666793823242" as="geometry"/>
                </mxCell>
                <mxCell id="r-MVeTWE6W_a-qISFKLb-100" style="shape=rect;rounded=1;arcSize=15;absoluteArcSize=1;shadow=0;strokeWidth=1;fillColor=none;pointerEvents=0;strokeColor=#000000;gradientColor=#FFFFFF;gradientDirection=north;opacity=100.0;dashed=1;fixDash=1;dashPattern=;gliffyId=122;" parent="1" vertex="1">
                    <mxGeometry x="1535.8787841796875" y="812.1129760742188" width="1067.25" height="676.7857055664062" as="geometry"/>
                </mxCell>
                <mxCell id="r-MVeTWE6W_a-qISFKLb-101" value="&lt;div style='width: 103.41592px;height:auto;word-break: break-word;'&gt;&lt;div align=&quot;left&quot;&gt;&lt;span style=&quot;font-family: Arial; font-size: 20px; line-height: 0;&quot;&gt;&lt;span style=&quot; line-height: 0;&quot;&gt;&lt;span style=&quot;color: #000000; font-size: 20px; line-height: 16.5px;&quot;&gt;Model v2&lt;/span&gt;&lt;br&gt;&lt;/span&gt;&lt;/span&gt;&lt;/div&gt;&lt;/div&gt;" style="text;html=1;nl2Br=0;html=1;nl2Br=0;verticalAlign=middle;align=left;spacingLeft=0.0;spacingRight=0;whiteSpace=wrap;gliffyId=123;" parent="1" vertex="1">
                    <mxGeometry x="1566.6287841796875" y="781.3629760742188" width="106.4159164428711" height="25" as="geometry"/>
                </mxCell>
                <mxCell id="r-MVeTWE6W_a-qISFKLb-102" style="shape=filledEdge;strokeWidth=1;strokeColor=#000000;fillColor=none;startArrow=none;startFill=0;startSize=6;endArrow=open;endFill=0;endSize=6;rounded=1;dashed=1;fixDash=1;dashPattern=;html=1;nl2Br=0;gliffyId=124;" parent="1" edge="1">
                    <mxGeometry width="165.55555725097656" height="188.88888549804688" relative="1" as="geometry">
                        <mxPoint x="480.93968200683594" y="1034.0357055664062" as="sourcePoint"/>
                        <mxPoint x="646.4952392578125" y="1222.924560546875" as="targetPoint"/>
                    </mxGeometry>
                </mxCell>
                <mxCell id="r-MVeTWE6W_a-qISFKLb-103" value="&lt;div style=&quot;width: 158.55556px;height:auto;word-break: break-word;&quot;&gt;&lt;div align=&quot;center&quot;&gt;&lt;span style=&quot;font-family: Arial; font-size: 20px; line-height: 0;&quot;&gt;&lt;span style=&quot; line-height: 0;&quot;&gt;&lt;span style=&quot;color: #000000; font-size: 20px; line-height: 16.5px;&quot;&gt;???&lt;/span&gt;&lt;br&gt;&lt;/span&gt;&lt;/span&gt;&lt;/div&gt;&lt;/div&gt;" style="text;html=1;nl2Br=0;points=[];labelBackgroundColor=none;html=1;nl2Br=0;verticalAlign=middle;align=center;spacingLeft=0.0;spacingRight=0;whiteSpace=wrap;gliffyId=125;" parent="r-MVeTWE6W_a-qISFKLb-102" vertex="1">
                    <mxGeometry relative="1" as="geometry">
                        <mxPoint x="28" y="-16" as="offset"/>
                    </mxGeometry>
                </mxCell>
                <mxCell id="r-MVeTWE6W_a-qISFKLb-104" value="&lt;div style='width: 333.0px;height:auto;word-break: break-word;'&gt;&lt;div align=&quot;center&quot;&gt;&lt;span style=&quot;font-family: Arial; font-size: 20px; line-height: 0;&quot;&gt;&lt;span style=&quot; line-height: 0;&quot;&gt;&lt;span style=&quot;color: #000000; font-size: 20px; line-height: 16.5px;&quot;&gt;Route/Train&lt;/span&gt;&lt;br&gt;&lt;/span&gt;&lt;/span&gt;&lt;/div&gt;&lt;/div&gt;" style="shape=rect;rounded=1;arcSize=15;absoluteArcSize=1;shadow=0;strokeWidth=1;fillColor=none;pointerEvents=0;strokeColor=#000000;gradientColor=#FFFFFF;gradientDirection=north;opacity=100.0;dashed=1;fixDash=1;dashPattern=;html=1;nl2Br=0;verticalAlign=middle;align=center;spacingLeft=2.0;spacingRight=0;whiteSpace=wrap;gliffyId=126;" parent="1" vertex="1">
                    <mxGeometry x="3013.791259765625" y="857.1756591796875" width="340" height="145" as="geometry"/>
                </mxCell>
                <mxCell id="r-MVeTWE6W_a-qISFKLb-105" style="shape=filledEdge;strokeWidth=1;strokeColor=#000000;fillColor=none;startArrow=none;startFill=0;startSize=6;endArrow=open;endFill=0;endSize=6;rounded=1;dashed=1;fixDash=1;dashPattern=;gliffyId=128;" parent="1" edge="1">
                    <mxGeometry width="167.13485717773438" height="135.7554168701172" relative="1" as="geometry">
                        <mxPoint x="3090.4677734375" y="1024.244140625" as="sourcePoint"/>
                        <mxPoint x="2923.3330078125" y="1159.9995727539062" as="targetPoint"/>
                    </mxGeometry>
                </mxCell>
                <mxCell id="r-MVeTWE6W_a-qISFKLb-106" style="shape=filledEdge;strokeWidth=1;strokeColor=#000000;fillColor=none;startArrow=none;startFill=0;startSize=6;endArrow=open;endFill=0;endSize=6;rounded=1;dashed=1;fixDash=1;dashPattern=;gliffyId=129;" parent="1" edge="1">
                    <mxGeometry width="1.4519001245498657" height="133.7083282470703" relative="1" as="geometry">
                        <mxPoint x="3181.957763671875" y="1034.1756591796875" as="sourcePoint"/>
                        <mxPoint x="3183.40966796875" y="1167.8839721679688" as="targetPoint"/>
                    </mxGeometry>
                </mxCell>
                <mxCell id="r-MVeTWE6W_a-qISFKLb-107" style="shape=filledEdge;strokeWidth=1;strokeColor=#000000;fillColor=none;startArrow=none;startFill=0;startSize=6;endArrow=open;endFill=0;endSize=6;rounded=1;dashed=1;fixDash=1;dashPattern=;gliffyId=130;" parent="1" edge="1">
                    <mxGeometry width="114.1159896850586" height="138.09339904785156" relative="1" as="geometry">
                        <mxPoint x="3273.06591796875" y="1034.1756591796875" as="sourcePoint"/>
                        <mxPoint x="3387.181884765625" y="1172.26904296875" as="targetPoint"/>
                    </mxGeometry>
                </mxCell>
                <mxCell id="r-MVeTWE6W_a-qISFKLb-108" value="&lt;div style='width: 233.0px;height:auto;word-break: break-word;'&gt;&lt;div align=&quot;center&quot;&gt;&lt;span style=&quot;font-family: Arial; font-size: 20px; line-height: 0;&quot;&gt;&lt;span style=&quot; line-height: 0;&quot;&gt;&lt;span style=&quot;color: #000000; font-size: 20px; line-height: 16.5px;&quot;&gt;Station&lt;/span&gt;&lt;br&gt;&lt;/span&gt;&lt;/span&gt;&lt;/div&gt;&lt;/div&gt;" style="shape=rect;rounded=1;arcSize=15;absoluteArcSize=1;shadow=0;strokeWidth=1;fillColor=none;pointerEvents=0;strokeColor=#000000;gradientColor=#FFFFFF;gradientDirection=north;opacity=100.0;dashed=1;fixDash=1;dashPattern=;html=1;nl2Br=0;verticalAlign=middle;align=center;spacingLeft=2.0;spacingRight=0;whiteSpace=wrap;gliffyId=131;" parent="1" vertex="1">
                    <mxGeometry x="2692.42236328125" y="1189.8839721679688" width="240" height="215" as="geometry"/>
                </mxCell>
                <mxCell id="r-MVeTWE6W_a-qISFKLb-109" value="&lt;div style='width: 210.0px;height:auto;word-break: break-word;'&gt;&lt;div align=&quot;center&quot;&gt;&lt;span style=&quot;font-family: Arial; font-size: 20px; line-height: 0;&quot;&gt;&lt;span style=&quot; line-height: 0;&quot;&gt;&lt;span style=&quot;color: #000000; font-size: 20px; line-height: 16.5px;&quot;&gt;Station&lt;/span&gt;&lt;br&gt;&lt;/span&gt;&lt;/span&gt;&lt;/div&gt;&lt;/div&gt;" style="shape=rect;rounded=1;arcSize=15;absoluteArcSize=1;shadow=0;strokeWidth=1;fillColor=none;pointerEvents=0;strokeColor=#000000;gradientColor=#FFFFFF;gradientDirection=north;opacity=100.0;dashed=1;fixDash=1;dashPattern=;html=1;nl2Br=0;verticalAlign=middle;align=center;spacingLeft=2.0;spacingRight=0;whiteSpace=wrap;gliffyId=133;" parent="1" vertex="1">
                    <mxGeometry x="3060.541259765625" y="1199.8839721679688" width="217" height="224" as="geometry"/>
                </mxCell>
                <mxCell id="r-MVeTWE6W_a-qISFKLb-110" value="&lt;div style='width: 193.0px;height:auto;word-break: break-word;'&gt;&lt;div align=&quot;center&quot;&gt;&lt;span style=&quot;font-family: Arial; font-size: 20px; line-height: 0;&quot;&gt;&lt;span style=&quot; line-height: 0;&quot;&gt;&lt;span style=&quot;color: #000000; font-size: 20px; line-height: 16.5px;&quot;&gt;Station&lt;/span&gt;&lt;br&gt;&lt;/span&gt;&lt;/span&gt;&lt;/div&gt;&lt;/div&gt;" style="shape=rect;rounded=1;arcSize=15;absoluteArcSize=1;shadow=0;strokeWidth=1;fillColor=none;pointerEvents=0;strokeColor=#000000;gradientColor=#FFFFFF;gradientDirection=north;opacity=100.0;dashed=1;fixDash=1;dashPattern=;html=1;nl2Br=0;verticalAlign=middle;align=center;spacingLeft=2.0;spacingRight=0;whiteSpace=wrap;gliffyId=135;" parent="1" vertex="1">
                    <mxGeometry x="3412.8984375" y="1191.3125610351562" width="200" height="248" as="geometry"/>
                </mxCell>
                <mxCell id="r-MVeTWE6W_a-qISFKLb-111" style="shape=rect;rounded=1;arcSize=15;absoluteArcSize=1;shadow=0;strokeWidth=1;fillColor=none;pointerEvents=0;strokeColor=#000000;gradientColor=#FFFFFF;gradientDirection=north;opacity=100.0;dashed=1;fixDash=1;dashPattern=;gliffyId=137;" parent="1" vertex="1">
                    <mxGeometry x="2644.4541015625" y="811.6063232421875" width="1067.25" height="676.7857055664062" as="geometry"/>
                </mxCell>
                <mxCell id="r-MVeTWE6W_a-qISFKLb-112" value="&lt;div style='width: 102.67192px;height:auto;word-break: break-word;'&gt;&lt;div align=&quot;left&quot;&gt;&lt;span style=&quot;font-family: Arial; font-size: 20px; line-height: 0;&quot;&gt;&lt;span style=&quot; line-height: 0;&quot;&gt;&lt;span style=&quot;color: #000000; font-size: 20px; line-height: 16.5px;&quot;&gt;Model v3&lt;/span&gt;&lt;br&gt;&lt;/span&gt;&lt;/span&gt;&lt;/div&gt;&lt;/div&gt;" style="text;html=1;nl2Br=0;html=1;nl2Br=0;verticalAlign=middle;align=left;spacingLeft=0.0;spacingRight=0;whiteSpace=wrap;gliffyId=138;" parent="1" vertex="1">
                    <mxGeometry x="2675.2041015625" y="780.8563232421875" width="105.67192077636719" height="25" as="geometry"/>
                </mxCell>
                <mxCell id="r-MVeTWE6W_a-qISFKLb-113" value="&lt;div style='width: 123.0px;height:auto;word-break: break-word;'&gt;&lt;div align=&quot;center&quot;&gt;&lt;span style=&quot;font-family: Arial; font-size: 20px; line-height: 0;&quot;&gt;&lt;span style=&quot; line-height: 0;&quot;&gt;&lt;span style=&quot;color: #000000; font-size: 20px; line-height: 16.5px;&quot;&gt;Delay&lt;/span&gt;&lt;br&gt;&lt;/span&gt;&lt;/span&gt;&lt;/div&gt;&lt;/div&gt;" style="shape=rect;rounded=1;arcSize=15;absoluteArcSize=1;shadow=0;strokeWidth=1;fillColor=none;pointerEvents=0;strokeColor=#000000;gradientColor=#FFFFFF;gradientDirection=north;opacity=100.0;dashed=1;fixDash=1;dashPattern=;html=1;nl2Br=0;verticalAlign=middle;align=center;spacingLeft=2.0;spacingRight=0;whiteSpace=wrap;gliffyId=139;" parent="1" vertex="1">
                    <mxGeometry x="2731.433837890625" y="991.47265625" width="130" height="61.66666793823242" as="geometry"/>
                </mxCell>
                <mxCell id="r-MVeTWE6W_a-qISFKLb-114" value="&lt;div style='width: 123.0px;height:auto;word-break: break-word;'&gt;&lt;div align=&quot;center&quot;&gt;&lt;span style=&quot;font-family: Arial; font-size: 20px; line-height: 0;&quot;&gt;&lt;span style=&quot; line-height: 0;&quot;&gt;&lt;span style=&quot;color: #000000; font-size: 20px; line-height: 16.5px;&quot;&gt;Delay&lt;/span&gt;&lt;br&gt;&lt;/span&gt;&lt;/span&gt;&lt;/div&gt;&lt;/div&gt;" style="shape=rect;rounded=1;arcSize=15;absoluteArcSize=1;shadow=0;strokeWidth=1;fillColor=none;pointerEvents=0;strokeColor=#000000;gradientColor=#FFFFFF;gradientDirection=north;opacity=100.0;dashed=1;fixDash=1;dashPattern=;html=1;nl2Br=0;verticalAlign=middle;align=center;spacingLeft=2.0;spacingRight=0;whiteSpace=wrap;gliffyId=141;" parent="1" vertex="1">
                    <mxGeometry x="3446.241943359375" y="991.47265625" width="130" height="61.66666793823242" as="geometry"/>
                </mxCell>
                <mxCell id="r-MVeTWE6W_a-qISFKLb-115" style="shape=filledEdge;strokeWidth=1;strokeColor=#000000;fillColor=none;startArrow=none;startFill=0;startSize=6;endArrow=open;endFill=0;endSize=6;rounded=1;dashed=1;fixDash=1;dashPattern=;gliffyId=143;" parent="1" edge="1">
                    <mxGeometry width="132.78550720214844" height="38.4705696105957" relative="1" as="geometry">
                        <mxPoint x="3004.919677734375" y="954.0517883300781" as="sourcePoint"/>
                        <mxPoint x="2872.13427734375" y="992.5223388671875" as="targetPoint"/>
                    </mxGeometry>
                </mxCell>
                <mxCell id="r-MVeTWE6W_a-qISFKLb-116" style="shape=filledEdge;strokeWidth=1;strokeColor=#000000;fillColor=none;startArrow=none;startFill=0;startSize=6;endArrow=open;endFill=0;endSize=6;rounded=1;dashed=1;fixDash=1;dashPattern=;gliffyId=144;" parent="1" edge="1">
                    <mxGeometry width="7.445916652679443" height="116.65269470214844" relative="1" as="geometry">
                        <mxPoint x="2829.940673828125" y="1062.017578125" as="sourcePoint"/>
                        <mxPoint x="2822.494873046875" y="1178.6702880859375" as="targetPoint"/>
                    </mxGeometry>
                </mxCell>
                <mxCell id="r-MVeTWE6W_a-qISFKLb-117" style="shape=filledEdge;strokeWidth=1;strokeColor=#000000;fillColor=none;startArrow=none;startFill=0;startSize=6;endArrow=open;endFill=0;endSize=6;rounded=1;dashed=1;fixDash=1;dashPattern=;gliffyId=145;" parent="1" edge="1">
                    <mxGeometry width="76.9411392211914" height="29.783666610717773" relative="1" as="geometry">
                        <mxPoint x="3361.08251953125" y="970.1846008300781" as="sourcePoint"/>
                        <mxPoint x="3438.023681640625" y="999.96826171875" as="targetPoint"/>
                    </mxGeometry>
                </mxCell>
                <mxCell id="r-MVeTWE6W_a-qISFKLb-118" style="shape=filledEdge;strokeWidth=1;strokeColor=#000000;fillColor=none;startArrow=none;startFill=0;startSize=6;endArrow=open;endFill=0;endSize=6;rounded=1;dashed=1;fixDash=1;dashPattern=;gliffyId=146;" parent="1" edge="1">
                    <mxGeometry width="12.409860610961914" height="120.37565612792969" relative="1" as="geometry">
                        <mxPoint x="3517.44677734375" y="1057.0536499023438" as="sourcePoint"/>
                        <mxPoint x="3529.856689453125" y="1177.4293212890625" as="targetPoint"/>
                    </mxGeometry>
                </mxCell>
                <mxCell id="r-MVeTWE6W_a-qISFKLb-119" value="&lt;div style='width: 333.0px;height:auto;word-break: break-word;'&gt;&lt;div align=&quot;center&quot;&gt;&lt;span style=&quot;font-family: Arial; font-size: 20px; line-height: 0;&quot;&gt;&lt;span style=&quot; line-height: 0;&quot;&gt;&lt;span style=&quot;color: #000000; font-size: 20px; line-height: 16.5px;&quot;&gt;Route/Train&lt;/span&gt;&lt;br&gt;&lt;/span&gt;&lt;/span&gt;&lt;/div&gt;&lt;/div&gt;" style="shape=rect;rounded=1;arcSize=15;absoluteArcSize=1;shadow=0;strokeWidth=1;fillColor=none;pointerEvents=0;strokeColor=#000000;gradientColor=#FFFFFF;gradientDirection=north;opacity=100.0;dashed=1;fixDash=1;dashPattern=;html=1;nl2Br=0;verticalAlign=middle;align=center;spacingLeft=2.0;spacingRight=0;whiteSpace=wrap;gliffyId=147;" parent="1" vertex="1">
                    <mxGeometry x="4309.84912109375" y="874.9945678710938" width="340" height="145" as="geometry"/>
                </mxCell>
                <mxCell id="r-MVeTWE6W_a-qISFKLb-120" style="shape=filledEdge;strokeWidth=1;strokeColor=#000000;fillColor=none;startArrow=none;startFill=0;startSize=6;endArrow=open;endFill=0;endSize=6;rounded=1;dashed=1;fixDash=1;dashPattern=;gliffyId=149;" parent="1" edge="1">
                    <mxGeometry width="263.9436340332031" height="145.2708740234375" relative="1" as="geometry">
                        <mxPoint x="4335.269287109375" y="1042.0630493164062" as="sourcePoint"/>
                        <mxPoint x="4071.32568359375" y="1187.3339233398438" as="targetPoint"/>
                    </mxGeometry>
                </mxCell>
                <mxCell id="r-MVeTWE6W_a-qISFKLb-121" style="shape=filledEdge;strokeWidth=1;strokeColor=#000000;fillColor=none;startArrow=none;startFill=0;startSize=6;endArrow=open;endFill=0;endSize=6;rounded=1;dashed=1;fixDash=1;dashPattern=;gliffyId=150;" parent="1" edge="1">
                    <mxGeometry width="249.27926635742188" height="225.1344757080078" relative="1" as="geometry">
                        <mxPoint x="4632.630859375" y="1039.9945678710938" as="sourcePoint"/>
                        <mxPoint x="4881.91015625" y="1265.1290283203125" as="targetPoint"/>
                    </mxGeometry>
                </mxCell>
                <mxCell id="r-MVeTWE6W_a-qISFKLb-122" value="&lt;div style='width: 233.0px;height:auto;word-break: break-word;'&gt;&lt;div align=&quot;center&quot;&gt;&lt;span style=&quot;font-family: Arial; font-size: 20px; line-height: 0;&quot;&gt;&lt;span style=&quot; line-height: 0;&quot;&gt;&lt;span style=&quot;color: #000000; font-size: 20px; line-height: 16.5px;&quot;&gt;Station/Stop&lt;/span&gt;&lt;br&gt;&lt;/span&gt;&lt;/span&gt;&lt;/div&gt;&lt;/div&gt;" style="shape=rect;rounded=1;arcSize=15;absoluteArcSize=1;shadow=0;strokeWidth=1;fillColor=none;pointerEvents=0;strokeColor=#000000;gradientColor=#FFFFFF;gradientDirection=north;opacity=100.0;dashed=1;fixDash=1;dashPattern=;html=1;nl2Br=0;verticalAlign=middle;align=center;spacingLeft=2.0;spacingRight=0;whiteSpace=wrap;gliffyId=151;" parent="1" vertex="1">
                    <mxGeometry x="3804.572509765625" y="1200.65087890625" width="240" height="215" as="geometry"/>
                </mxCell>
                <mxCell id="r-MVeTWE6W_a-qISFKLb-123" value="&lt;div style='width: 193.0px;height:auto;word-break: break-word;'&gt;&lt;div align=&quot;center&quot;&gt;&lt;span style=&quot;font-family: Arial; font-size: 20px; line-height: 0;&quot;&gt;&lt;span style=&quot; line-height: 0;&quot;&gt;&lt;span style=&quot;color: #000000; font-size: 20px; line-height: 16.5px;&quot;&gt;Station/Stop&lt;/span&gt;&lt;br&gt;&lt;/span&gt;&lt;/span&gt;&lt;/div&gt;&lt;/div&gt;" style="shape=rect;rounded=1;arcSize=15;absoluteArcSize=1;shadow=0;strokeWidth=1;fillColor=none;pointerEvents=0;strokeColor=#000000;gradientColor=#FFFFFF;gradientDirection=north;opacity=100.0;dashed=1;fixDash=1;dashPattern=;html=1;nl2Br=0;verticalAlign=middle;align=center;spacingLeft=2.0;spacingRight=0;whiteSpace=wrap;gliffyId=153;" parent="1" vertex="1">
                    <mxGeometry x="4907.626953125" y="1197.1661376953125" width="200" height="248" as="geometry"/>
                </mxCell>
                <mxCell id="r-MVeTWE6W_a-qISFKLb-124" style="shape=rect;rounded=1;arcSize=15;absoluteArcSize=1;shadow=0;strokeWidth=1;fillColor=none;pointerEvents=0;strokeColor=#000000;gradientColor=#FFFFFF;gradientDirection=north;opacity=100.0;dashed=1;fixDash=1;dashPattern=;gliffyId=155;" parent="1" vertex="1">
                    <mxGeometry x="3772.511962890625" y="813.4252319335938" width="1407.25" height="870.7857055664062" as="geometry"/>
                </mxCell>
                <mxCell id="r-MVeTWE6W_a-qISFKLb-125" value="&lt;div style='width: 102.67192px;height:auto;word-break: break-word;'&gt;&lt;div align=&quot;left&quot;&gt;&lt;span style=&quot;font-family: Arial; font-size: 20px; line-height: 0;&quot;&gt;&lt;span style=&quot; line-height: 0;&quot;&gt;&lt;span style=&quot;color: #000000; font-size: 20px; line-height: 16.5px;&quot;&gt;Model v3&lt;/span&gt;&lt;br&gt;&lt;/span&gt;&lt;/span&gt;&lt;/div&gt;&lt;/div&gt;" style="text;html=1;nl2Br=0;html=1;nl2Br=0;verticalAlign=middle;align=left;spacingLeft=0.0;spacingRight=0;whiteSpace=wrap;gliffyId=156;" parent="1" vertex="1">
                    <mxGeometry x="3803.261962890625" y="782.6752319335938" width="105.67192077636719" height="25" as="geometry"/>
                </mxCell>
                <mxCell id="r-MVeTWE6W_a-qISFKLb-126" value="&lt;div style='width: 233.0px;height:auto;word-break: break-word;'&gt;&lt;div align=&quot;center&quot;&gt;&lt;span style=&quot;font-family: Arial; font-size: 20px; line-height: 0;&quot;&gt;&lt;span style=&quot; line-height: 0;&quot;&gt;&lt;span style=&quot;color: #000000; font-size: 20px; line-height: 16.5px;&quot;&gt;Trip&lt;br&gt;&lt;br&gt;startingStation&lt;br&gt;endingStation&lt;br&gt;startTime&lt;br&gt;endTime&lt;/span&gt;&lt;br&gt;&lt;/span&gt;&lt;/span&gt;&lt;/div&gt;&lt;/div&gt;" style="shape=rect;rounded=1;arcSize=15;absoluteArcSize=1;shadow=0;strokeWidth=1;fillColor=none;pointerEvents=0;strokeColor=#000000;gradientColor=#FFFFFF;gradientDirection=north;opacity=100.0;dashed=1;fixDash=1;dashPattern=;html=1;nl2Br=0;verticalAlign=middle;align=center;spacingLeft=2.0;spacingRight=0;whiteSpace=wrap;gliffyId=157;" parent="1" vertex="1">
                    <mxGeometry x="4356.09716796875" y="1195.061767578125" width="240" height="215" as="geometry"/>
                </mxCell>
                <mxCell id="r-MVeTWE6W_a-qISFKLb-127" style="shape=filledEdge;strokeWidth=1;strokeColor=#000000;fillColor=none;startArrow=none;startFill=0;startSize=6;endArrow=open;endFill=0;endSize=6;rounded=1;dashed=1;fixDash=1;dashPattern=;html=1;nl2Br=0;gliffyId=159;" parent="1" edge="1">
                    <mxGeometry width="281.1668395996094" height="2.07234787940979" relative="1" as="geometry">
                        <mxPoint x="4338.34765625" y="1314.9710083007812" as="sourcePoint"/>
                        <mxPoint x="4057.180908203125" y="1317.0433349609375" as="targetPoint"/>
                    </mxGeometry>
                </mxCell>
                <mxCell id="r-MVeTWE6W_a-qISFKLb-128" value="&lt;div style=&quot;width: 274.16684px;height:auto;word-break: break-word;&quot;&gt;&lt;div align=&quot;center&quot;&gt;&lt;span style=&quot;font-family: Arial; font-size: 20px; line-height: 0;&quot;&gt;&lt;span style=&quot; line-height: 0;&quot;&gt;&lt;span style=&quot;color: #000000; font-size: 20px; line-height: 16.5px;&quot;&gt;StartingStation&lt;/span&gt;&lt;br&gt;&lt;/span&gt;&lt;/span&gt;&lt;/div&gt;&lt;/div&gt;" style="text;html=1;nl2Br=0;points=[];labelBackgroundColor=none;html=1;nl2Br=0;verticalAlign=middle;align=center;spacingLeft=0.0;spacingRight=0;whiteSpace=wrap;gliffyId=160;" parent="r-MVeTWE6W_a-qISFKLb-127" vertex="1">
                    <mxGeometry relative="1" as="geometry">
                        <mxPoint x="1" y="-25" as="offset"/>
                    </mxGeometry>
                </mxCell>
                <mxCell id="r-MVeTWE6W_a-qISFKLb-129" style="shape=filledEdge;strokeWidth=1;strokeColor=#000000;fillColor=none;startArrow=none;startFill=0;startSize=6;endArrow=open;endFill=0;endSize=6;rounded=1;dashed=1;fixDash=1;dashPattern=;html=1;nl2Br=0;gliffyId=161;" parent="1" edge="1">
                    <mxGeometry width="290.04132080078125" height="2.673973321914673" relative="1" as="geometry">
                        <mxPoint x="4607.6416015625" y="1329.0146484375" as="sourcePoint"/>
                        <mxPoint x="4897.68310546875" y="1326.3406982421875" as="targetPoint"/>
                    </mxGeometry>
                </mxCell>
                <mxCell id="r-MVeTWE6W_a-qISFKLb-130" value="&lt;div style=&quot;width: 283.04132px;height:auto;word-break: break-word;&quot;&gt;&lt;div align=&quot;center&quot;&gt;&lt;span style=&quot;font-family: Arial; font-size: 20px; line-height: 0;&quot;&gt;&lt;span style=&quot; line-height: 0;&quot;&gt;&lt;span style=&quot;color: #000000; font-size: 20px; line-height: 16.5px;&quot;&gt;EndingStation&lt;/span&gt;&lt;br&gt;&lt;/span&gt;&lt;/span&gt;&lt;/div&gt;&lt;/div&gt;" style="text;html=1;nl2Br=0;points=[];labelBackgroundColor=none;html=1;nl2Br=0;verticalAlign=middle;align=center;spacingLeft=0.0;spacingRight=0;whiteSpace=wrap;gliffyId=162;" parent="r-MVeTWE6W_a-qISFKLb-129" vertex="1">
                    <mxGeometry relative="1" as="geometry">
                        <mxPoint x="-1" y="-25" as="offset"/>
                    </mxGeometry>
                </mxCell>
                <mxCell id="r-MVeTWE6W_a-qISFKLb-131" style="shape=filledEdge;strokeWidth=1;strokeColor=#000000;fillColor=none;startArrow=none;startFill=0;startSize=6;endArrow=open;endFill=0;endSize=6;rounded=1;dashed=1;fixDash=1;dashPattern=;gliffyId=163;" parent="1" edge="1">
                    <mxGeometry width="0.050602205097675323" height="143.6040496826172" relative="1" as="geometry">
                        <mxPoint x="4479.26708984375" y="1033.4881591796875" as="sourcePoint"/>
                        <mxPoint x="4479.317626953125" y="1177.0922241210938" as="targetPoint"/>
                    </mxGeometry>
                </mxCell>
                <mxCell id="r-MVeTWE6W_a-qISFKLb-132" value="&lt;div style='width: 1026.4552px;height:auto;word-break: break-word;'&gt;&lt;div align=&quot;left&quot;&gt;&lt;span style=&quot;font-family: Arial; font-size: 20px; line-height: 0;&quot;&gt;&lt;span style=&quot; line-height: 0;&quot;&gt;&lt;span style=&quot;color: #000000; font-size: 20px; line-height: 16.5px;&quot;&gt;A Route ID can repeat multiple times in a day and keeps the same ID on other days&lt;/span&gt;&lt;br&gt;&lt;/span&gt;&lt;/span&gt;&lt;/div&gt;&lt;/div&gt;" style="text;html=1;nl2Br=0;html=1;nl2Br=0;verticalAlign=middle;align=left;spacingLeft=0.0;spacingRight=0;whiteSpace=wrap;gliffyId=164;" parent="1" vertex="1">
                    <mxGeometry x="4055.296875" y="495.0833320617676" width="1029.4552001953125" height="25" as="geometry"/>
                </mxCell>
                <mxCell id="r-MVeTWE6W_a-qISFKLb-133" value="&lt;div style='width: 354.7677px;height:auto;word-break: break-word;'&gt;&lt;div align=&quot;left&quot;&gt;&lt;span style=&quot;font-family: Arial; font-size: 20px; line-height: 0;&quot;&gt;&lt;span style=&quot; line-height: 0;&quot;&gt;&lt;span style=&quot;color: #000000; font-size: 20px; line-height: 16.5px;&quot;&gt;A Route's stops are Stations&lt;/span&gt;&lt;br&gt;&lt;/span&gt;&lt;/span&gt;&lt;/div&gt;&lt;/div&gt;" style="text;html=1;nl2Br=0;html=1;nl2Br=0;verticalAlign=middle;align=left;spacingLeft=0.0;spacingRight=0;whiteSpace=wrap;gliffyId=165;" parent="1" vertex="1">
                    <mxGeometry x="4038.07470703125" y="671.75" width="357.7677001953125" height="25" as="geometry"/>
                </mxCell>
                <mxCell id="r-MVeTWE6W_a-qISFKLb-134" value="&lt;div style='width: 1289.2068px;height:auto;word-break: break-word;'&gt;&lt;div align=&quot;left&quot;&gt;&lt;span style=&quot;font-family: Arial; font-size: 20px; line-height: 0;&quot;&gt;&lt;span style=&quot; line-height: 0;&quot;&gt;&lt;span style=&quot;color: #000000; font-size: 20px; line-height: 16.5px;&quot;&gt;The route_number is the specific train that's driving? i think so. it's actually unique in a day so maybe not.&lt;/span&gt;&lt;br&gt;&lt;/span&gt;&lt;/span&gt;&lt;/div&gt;&lt;/div&gt;" style="text;html=1;nl2Br=0;html=1;nl2Br=0;verticalAlign=middle;align=left;spacingLeft=0.0;spacingRight=0;whiteSpace=wrap;gliffyId=166;" parent="1" vertex="1">
                    <mxGeometry x="4040.027099609375" y="706.7023773193359" width="1292.206787109375" height="25" as="geometry"/>
                </mxCell>
                <mxCell id="r-MVeTWE6W_a-qISFKLb-135" value="&lt;div style='width: 800.8314px;height:auto;word-break: break-word;'&gt;&lt;div align=&quot;left&quot;&gt;&lt;span style=&quot;font-family: Arial; font-size: 20px; line-height: 0;&quot;&gt;&lt;span style=&quot; line-height: 0;&quot;&gt;&lt;span style=&quot;color: #000000; font-size: 20px; line-height: 16.5px;&quot;&gt;route_src and route_dest do not necesarily line up with the stops&lt;/span&gt;&lt;br&gt;&lt;/span&gt;&lt;/span&gt;&lt;/div&gt;&lt;/div&gt;" style="text;html=1;nl2Br=0;html=1;nl2Br=0;verticalAlign=middle;align=left;spacingLeft=0.0;spacingRight=0;whiteSpace=wrap;gliffyId=167;" parent="1" vertex="1">
                    <mxGeometry x="4043.777099609375" y="741.702392578125" width="803.8314208984375" height="25" as="geometry"/>
                </mxCell>
                <mxCell id="r-MVeTWE6W_a-qISFKLb-136" value="&lt;div style='width: 1366.1029px;height:auto;word-break: break-word;'&gt;&lt;div align=&quot;left&quot;&gt;&lt;span style=&quot;font-family: Arial; font-size: 20px; line-height: 0;&quot;&gt;&lt;span style=&quot; line-height: 0;&quot;&gt;&lt;span style=&quot;color: #000000; font-size: 20px; line-height: 16.5px;&quot;&gt;delay endpoint gives information on what the current train delay is, the trains previous station and when it left it&lt;/span&gt;&lt;br&gt;&lt;/span&gt;&lt;/span&gt;&lt;/div&gt;&lt;/div&gt;" style="text;html=1;nl2Br=0;html=1;nl2Br=0;verticalAlign=middle;align=left;spacingLeft=0.0;spacingRight=0;whiteSpace=wrap;gliffyId=168;" parent="1" vertex="1">
                    <mxGeometry x="4045.027099609375" y="597.9523773193359" width="1369.1029052734375" height="25" as="geometry"/>
                </mxCell>
                <mxCell id="r-MVeTWE6W_a-qISFKLb-137" value="&lt;div style='width: 1342.2468px;height:auto;word-break: break-word;'&gt;&lt;div align=&quot;left&quot;&gt;&lt;span style=&quot;font-family: Arial; font-size: 20px; line-height: 0;&quot;&gt;&lt;span style=&quot; line-height: 0;&quot;&gt;&lt;span style=&quot;color: #000000; font-size: 20px; line-height: 16.5px;&quot;&gt;getStops endpoint returns all of the stops. The stops from here should be used to create new stops in the DB&lt;/span&gt;&lt;br&gt;&lt;/span&gt;&lt;/span&gt;&lt;/div&gt;&lt;/div&gt;" style="text;html=1;nl2Br=0;html=1;nl2Br=0;verticalAlign=middle;align=left;spacingLeft=0.0;spacingRight=0;whiteSpace=wrap;gliffyId=169;" parent="1" vertex="1">
                    <mxGeometry x="4043.777099609375" y="561.7023773193359" width="1345.246826171875" height="25" as="geometry"/>
                </mxCell>
                <mxCell id="r-MVeTWE6W_a-qISFKLb-138" value="&lt;div style='width: 682.75146px;height:auto;word-break: break-word;'&gt;&lt;div align=&quot;left&quot;&gt;&lt;span style=&quot;font-family: Arial; font-size: 20px; line-height: 0;&quot;&gt;&lt;span style=&quot; line-height: 0;&quot;&gt;&lt;span style=&quot;color: #000000; font-size: 20px; line-height: 16.5px;&quot;&gt;are connection links necesary for this app? don't think so.&lt;/span&gt;&lt;br&gt;&lt;/span&gt;&lt;/span&gt;&lt;/div&gt;&lt;/div&gt;" style="text;html=1;nl2Br=0;html=1;nl2Br=0;verticalAlign=middle;align=left;spacingLeft=0.0;spacingRight=0;whiteSpace=wrap;gliffyId=170;" parent="1" vertex="1">
                    <mxGeometry x="4050.027099609375" y="525.4523773193359" width="685.75146484375" height="25" as="geometry"/>
                </mxCell>
                <mxCell id="r-MVeTWE6W_a-qISFKLb-139" value="&lt;div style='width: 274.0px;height:auto;word-break: break-word;'&gt;&lt;div align=&quot;center&quot;&gt;&lt;span style=&quot;font-family: Arial; font-size: 20px; line-height: 0;&quot;&gt;&lt;span style=&quot; line-height: 0;&quot;&gt;&lt;span style=&quot;color: #000000; font-size: 20px; line-height: 16.5px;&quot;&gt;Is it the next day?&lt;/span&gt;&lt;br&gt;&lt;/span&gt;&lt;/span&gt;&lt;/div&gt;&lt;/div&gt;" style="shape=rect;rounded=1;arcSize=15;absoluteArcSize=1;shadow=0;strokeWidth=1;fillColor=none;pointerEvents=0;strokeColor=#000000;gradientColor=#FFFFFF;gradientDirection=north;opacity=100.0;dashed=1;fixDash=1;dashPattern=;html=1;nl2Br=0;verticalAlign=middle;align=center;spacingLeft=2.0;spacingRight=0;whiteSpace=wrap;gliffyId=171;" parent="1" vertex="1">
                    <mxGeometry x="1475.8245849609375" y="3451.15673828125" width="281" height="110" as="geometry"/>
                </mxCell>
                <mxCell id="r-MVeTWE6W_a-qISFKLb-140" value="&lt;div style='width: 274.0px;height:auto;word-break: break-word;'&gt;&lt;div align=&quot;center&quot;&gt;&lt;span style=&quot;font-family: Arial; font-size: 20px; line-height: 0;&quot;&gt;&lt;span style=&quot; line-height: 0;&quot;&gt;&lt;span style=&quot;color: #000000; font-size: 20px; line-height: 16.5px;&quot;&gt;Get Stations and save &lt;br&gt;them to DB&lt;/span&gt;&lt;br&gt;&lt;/span&gt;&lt;/span&gt;&lt;/div&gt;&lt;/div&gt;" style="shape=rect;rounded=1;arcSize=15;absoluteArcSize=1;shadow=0;strokeWidth=1;fillColor=none;pointerEvents=0;strokeColor=#000000;gradientColor=#FFFFFF;gradientDirection=north;opacity=100.0;dashed=1;fixDash=1;dashPattern=;html=1;nl2Br=0;verticalAlign=middle;align=center;spacingLeft=2.0;spacingRight=0;whiteSpace=wrap;gliffyId=173;" parent="1" vertex="1">
                    <mxGeometry x="1839.2293701171875" y="3451.15673828125" width="281" height="110" as="geometry"/>
                </mxCell>
                <mxCell id="r-MVeTWE6W_a-qISFKLb-141" style="shape=rect;rounded=1;arcSize=15;absoluteArcSize=1;shadow=0;strokeWidth=1;fillColor=none;pointerEvents=0;strokeColor=#000000;gradientColor=#FFFFFF;gradientDirection=north;opacity=100.0;dashed=1;fixDash=1;dashPattern=;gliffyId=175;" parent="1" vertex="1">
                    <mxGeometry x="1453.3603515625" y="3432.09912109375" width="1055.1190185546875" height="151.74603271484375" as="geometry"/>
                </mxCell>
                <mxCell id="r-MVeTWE6W_a-qISFKLb-142" value="&lt;div style='width: 182.18382px;height:auto;word-break: break-word;'&gt;&lt;div align=&quot;left&quot;&gt;&lt;span style=&quot;font-family: Arial; font-size: 20px; line-height: 0;&quot;&gt;&lt;span style=&quot; line-height: 0;&quot;&gt;&lt;span style=&quot;color: #000000; font-size: 20px; line-height: 16.5px;&quot;&gt;Station fetcher&lt;/span&gt;&lt;br&gt;&lt;/span&gt;&lt;/span&gt;&lt;/div&gt;&lt;/div&gt;" style="text;html=1;nl2Br=0;html=1;nl2Br=0;verticalAlign=middle;align=left;spacingLeft=0.0;spacingRight=0;whiteSpace=wrap;gliffyId=176;" parent="1" vertex="1">
                    <mxGeometry x="1484.173828125" y="3399.758056640625" width="185.18382263183594" height="25" as="geometry"/>
                </mxCell>
                <mxCell id="r-MVeTWE6W_a-qISFKLb-143" style="shape=filledEdge;strokeWidth=1;strokeColor=#000000;fillColor=none;startArrow=none;startFill=0;startSize=6;endArrow=open;endFill=0;endSize=6;rounded=1;dashed=1;fixDash=1;dashPattern=;gliffyId=177;" parent="1" edge="1">
                    <mxGeometry width="58.57143020629883" height="4.285714149475098" relative="1" as="geometry">
                        <mxPoint x="1767.1103515625" y="3503.230224609375" as="sourcePoint"/>
                        <mxPoint x="1825.6817626953125" y="3498.944580078125" as="targetPoint"/>
                    </mxGeometry>
                </mxCell>
                <mxCell id="r-MVeTWE6W_a-qISFKLb-144" value="&lt;div style='width: 1894.6304px;height:auto;word-break: break-word;'&gt;&lt;div align=&quot;left&quot;&gt;&lt;span style=&quot;font-family: Arial; font-size: 20px; line-height: 0;&quot;&gt;&lt;span style=&quot; line-height: 0;&quot;&gt;&lt;span style=&quot;color: #000000; font-size: 20px; line-height: 16.5px;&quot;&gt;in the delay endpoint when a route finishes it will say when the route finished but won't give the delay, it will have to be calculated from the expected arrival&lt;/span&gt;&lt;br&gt;&lt;/span&gt;&lt;/span&gt;&lt;/div&gt;&lt;/div&gt;" style="text;html=1;nl2Br=0;html=1;nl2Br=0;verticalAlign=middle;align=left;spacingLeft=0.0;spacingRight=0;whiteSpace=wrap;gliffyId=178;" parent="1" vertex="1">
                    <mxGeometry x="4049.14208984375" y="637.5793609619141" width="1897.63037109375" height="25" as="geometry"/>
                </mxCell>
                <mxCell id="r-MVeTWE6W_a-qISFKLb-145" value="&lt;div style='width: 333.0px;height:auto;word-break: break-word;'&gt;&lt;div align=&quot;center&quot;&gt;&lt;span style=&quot;font-family: Arial; font-size: 20px; line-height: 0;&quot;&gt;&lt;span style=&quot; line-height: 0;&quot;&gt;&lt;span style=&quot;color: #000000; font-size: 20px; line-height: 16.5px;&quot;&gt;Route/Train&lt;/span&gt;&lt;br&gt;&lt;/span&gt;&lt;/span&gt;&lt;/div&gt;&lt;/div&gt;" style="shape=rect;rounded=1;arcSize=15;absoluteArcSize=1;shadow=0;strokeWidth=1;fillColor=none;pointerEvents=0;strokeColor=#000000;gradientColor=#FFFFFF;gradientDirection=north;opacity=100.0;dashed=1;fixDash=1;dashPattern=;html=1;nl2Br=0;verticalAlign=middle;align=center;spacingLeft=2.0;spacingRight=0;whiteSpace=wrap;gliffyId=179;" parent="1" vertex="1">
                    <mxGeometry x="5587.72314453125" y="865.146728515625" width="340" height="145" as="geometry"/>
                </mxCell>
                <mxCell id="r-MVeTWE6W_a-qISFKLb-146" style="shape=rect;rounded=1;arcSize=15;absoluteArcSize=1;shadow=0;strokeWidth=1;fillColor=none;pointerEvents=0;strokeColor=#000000;gradientColor=#FFFFFF;gradientDirection=north;opacity=100.0;dashed=1;fixDash=1;dashPattern=;gliffyId=181;" parent="1" vertex="1">
                    <mxGeometry x="5217.052734375" y="805.2440490722656" width="1805.1495361328125" height="1141.2857666015625" as="geometry"/>
                </mxCell>
                <mxCell id="r-MVeTWE6W_a-qISFKLb-147" value="&lt;div style='width: 101.68791px;height:auto;word-break: break-word;'&gt;&lt;div align=&quot;left&quot;&gt;&lt;span style=&quot;font-family: Arial; font-size: 20px; line-height: 0;&quot;&gt;&lt;span style=&quot; line-height: 0;&quot;&gt;&lt;span style=&quot;color: #000000; font-size: 20px; line-height: 16.5px;&quot;&gt;Model v4&lt;/span&gt;&lt;br&gt;&lt;/span&gt;&lt;/span&gt;&lt;/div&gt;&lt;/div&gt;" style="text;html=1;nl2Br=0;html=1;nl2Br=0;verticalAlign=middle;align=left;spacingLeft=0.0;spacingRight=0;whiteSpace=wrap;gliffyId=182;" parent="1" vertex="1">
                    <mxGeometry x="5247.802734375" y="774.4940490722656" width="104.68791198730469" height="25" as="geometry"/>
                </mxCell>
                <mxCell id="r-MVeTWE6W_a-qISFKLb-148" style="shape=filledEdge;strokeWidth=1;strokeColor=#000000;fillColor=none;startArrow=none;startFill=0;startSize=6;endArrow=open;endFill=0;endSize=6;rounded=1;dashed=1;fixDash=1;dashPattern=;gliffyId=183;" parent="1" edge="1">
                    <mxGeometry width="4.748960018157959" height="122.27072143554688" relative="1" as="geometry">
                        <mxPoint x="5756.3359375" y="1023.6403198242188" as="sourcePoint"/>
                        <mxPoint x="5751.5869140625" y="1145.9110107421875" as="targetPoint"/>
                    </mxGeometry>
                </mxCell>
                <mxCell id="r-MVeTWE6W_a-qISFKLb-149" value="&lt;div style='width: 193.0px;height:auto;word-break: break-word;'&gt;&lt;div align=&quot;center&quot;&gt;&lt;span style=&quot;font-family: Arial; font-size: 20px; line-height: 0;&quot;&gt;&lt;span style=&quot; line-height: 0;&quot;&gt;&lt;span style=&quot;color: #000000; font-size: 20px; line-height: 16.5px;&quot;&gt;Station&lt;/span&gt;&lt;br&gt;&lt;/span&gt;&lt;/span&gt;&lt;/div&gt;&lt;/div&gt;" style="shape=rect;rounded=1;arcSize=15;absoluteArcSize=1;shadow=0;strokeWidth=1;fillColor=none;pointerEvents=0;strokeColor=#000000;gradientColor=#FFFFFF;gradientDirection=north;opacity=100.0;dashed=1;fixDash=1;dashPattern=;html=1;nl2Br=0;verticalAlign=middle;align=center;spacingLeft=2.0;spacingRight=0;whiteSpace=wrap;gliffyId=184;" parent="1" vertex="1">
                    <mxGeometry x="5652.15380859375" y="1432.9285888671875" width="200" height="143" as="geometry"/>
                </mxCell>
                <mxCell id="r-MVeTWE6W_a-qISFKLb-150" style="shape=filledEdge;strokeWidth=1;strokeColor=#000000;fillColor=none;startArrow=none;startFill=0;startSize=6;endArrow=open;endFill=0;endSize=6;rounded=1;dashed=1;fixDash=1;dashPattern=;gliffyId=186;" parent="1" edge="1">
                    <mxGeometry width="5.5508880615234375" height="156.57142639160156" relative="1" as="geometry">
                        <mxPoint x="5743.1376953125" y="1265.3571166992188" as="sourcePoint"/>
                        <mxPoint x="5748.6884765625" y="1421.9285278320312" as="targetPoint"/>
                    </mxGeometry>
                </mxCell>
                <mxCell id="r-MVeTWE6W_a-qISFKLb-151" value="&lt;div style='width: 125.0px;height:auto;word-break: break-word;'&gt;&lt;div align=&quot;center&quot;&gt;&lt;span style=&quot;font-family: Arial; font-size: 20px; line-height: 0;&quot;&gt;&lt;span style=&quot; line-height: 0;&quot;&gt;&lt;span style=&quot;color: #000000; font-size: 20px; line-height: 16.5px;&quot;&gt;Stop&lt;/span&gt;&lt;br&gt;&lt;/span&gt;&lt;/span&gt;&lt;/div&gt;&lt;/div&gt;" style="shape=rect;rounded=1;arcSize=15;absoluteArcSize=1;shadow=0;strokeWidth=1;fillColor=none;pointerEvents=0;strokeColor=#000000;gradientColor=#FFFFFF;gradientDirection=north;opacity=100.0;dashed=1;fixDash=1;dashPattern=;html=1;nl2Br=0;verticalAlign=middle;align=center;spacingLeft=2.0;spacingRight=0;whiteSpace=wrap;gliffyId=187;" parent="1" vertex="1">
                    <mxGeometry x="5402.916015625" y="1164.72216796875" width="132" height="87" as="geometry"/>
                </mxCell>
                <mxCell id="r-MVeTWE6W_a-qISFKLb-152" style="shape=filledEdge;strokeWidth=1;strokeColor=#000000;fillColor=none;startArrow=none;startFill=0;startSize=6;endArrow=open;endFill=0;endSize=6;rounded=1;dashed=1;fixDash=1;dashPattern=;gliffyId=189;" parent="1" edge="1">
                    <mxGeometry width="203.55633544921875" height="140.82888793945312" relative="1" as="geometry">
                        <mxPoint x="5654.28173828125" y="1016.6218872070312" as="sourcePoint"/>
                        <mxPoint x="5450.7255859375" y="1157.4508056640625" as="targetPoint"/>
                    </mxGeometry>
                </mxCell>
                <mxCell id="r-MVeTWE6W_a-qISFKLb-153" style="shape=filledEdge;strokeWidth=1;strokeColor=#000000;fillColor=none;startArrow=none;startFill=0;startSize=6;endArrow=open;endFill=0;endSize=6;rounded=1;dashed=1;fixDash=1;dashPattern=;gliffyId=190;" parent="1" edge="1">
                    <mxGeometry width="116.91770935058594" height="120.60405731201172" relative="1" as="geometry">
                        <mxPoint x="5911.6142578125" y="1032.815185546875" as="sourcePoint"/>
                        <mxPoint x="6028.53173828125" y="1153.4192504882812" as="targetPoint"/>
                    </mxGeometry>
                </mxCell>
                <mxCell id="r-MVeTWE6W_a-qISFKLb-154" value="&lt;div style='width: 193.0px;height:auto;word-break: break-word;'&gt;&lt;div align=&quot;center&quot;&gt;&lt;span style=&quot;font-family: Arial; font-size: 20px; line-height: 0;&quot;&gt;&lt;span style=&quot; line-height: 0;&quot;&gt;&lt;span style=&quot;color: #000000; font-size: 20px; line-height: 16.5px;&quot;&gt;Station&lt;/span&gt;&lt;br&gt;&lt;/span&gt;&lt;/span&gt;&lt;/div&gt;&lt;/div&gt;" style="shape=rect;rounded=1;arcSize=15;absoluteArcSize=1;shadow=0;strokeWidth=1;fillColor=none;pointerEvents=0;strokeColor=#000000;gradientColor=#FFFFFF;gradientDirection=north;opacity=100.0;dashed=1;fixDash=1;dashPattern=;html=1;nl2Br=0;verticalAlign=middle;align=center;spacingLeft=2.0;spacingRight=0;whiteSpace=wrap;gliffyId=191;" parent="1" vertex="1">
                    <mxGeometry x="5361.2490234375" y="1441.5491943359375" width="200" height="143" as="geometry"/>
                </mxCell>
                <mxCell id="r-MVeTWE6W_a-qISFKLb-155" style="shape=filledEdge;strokeWidth=1;strokeColor=#000000;fillColor=none;startArrow=none;startFill=0;startSize=6;endArrow=open;endFill=0;endSize=6;rounded=1;dashed=1;fixDash=1;dashPattern=;gliffyId=193;" parent="1" edge="1">
                    <mxGeometry width="5.607232093811035" height="178.25848388671875" relative="1" as="geometry">
                        <mxPoint x="5466.32421875" y="1258.8395385742188" as="sourcePoint"/>
                        <mxPoint x="5460.716796875" y="1437.0980224609375" as="targetPoint"/>
                    </mxGeometry>
                </mxCell>
                <mxCell id="r-MVeTWE6W_a-qISFKLb-156" value="&lt;div style='width: 193.0px;height:auto;word-break: break-word;'&gt;&lt;div align=&quot;center&quot;&gt;&lt;span style=&quot;font-family: Arial; font-size: 20px; line-height: 0;&quot;&gt;&lt;span style=&quot; line-height: 0;&quot;&gt;&lt;span style=&quot;color: #000000; font-size: 20px; line-height: 16.5px;&quot;&gt;Station&lt;/span&gt;&lt;br&gt;&lt;/span&gt;&lt;/span&gt;&lt;/div&gt;&lt;/div&gt;" style="shape=rect;rounded=1;arcSize=15;absoluteArcSize=1;shadow=0;strokeWidth=1;fillColor=none;pointerEvents=0;strokeColor=#000000;gradientColor=#FFFFFF;gradientDirection=north;opacity=100.0;dashed=1;fixDash=1;dashPattern=;html=1;nl2Br=0;verticalAlign=middle;align=center;spacingLeft=2.0;spacingRight=0;whiteSpace=wrap;gliffyId=194;" parent="1" vertex="1">
                    <mxGeometry x="6079.50390625" y="1432.9338989257812" width="200" height="143" as="geometry"/>
                </mxCell>
                <mxCell id="r-MVeTWE6W_a-qISFKLb-157" style="shape=filledEdge;strokeWidth=1;strokeColor=#000000;fillColor=none;startArrow=none;startFill=0;startSize=6;endArrow=open;endFill=0;endSize=6;rounded=1;dashed=1;fixDash=1;dashPattern=;gliffyId=196;" parent="1" edge="1">
                    <mxGeometry width="67.67179870605469" height="149.62283325195312" relative="1" as="geometry">
                        <mxPoint x="6073.78125" y="1272.3110961914062" as="sourcePoint"/>
                        <mxPoint x="6141.453125" y="1421.9339599609375" as="targetPoint"/>
                    </mxGeometry>
                </mxCell>
                <mxCell id="r-MVeTWE6W_a-qISFKLb-158" value="&lt;div style='width: 304.0px;height:auto;word-break: break-word;'&gt;&lt;div align=&quot;center&quot;&gt;&lt;span style=&quot;font-family: Arial; font-size: 20px; line-height: 0;&quot;&gt;&lt;span style=&quot; line-height: 0;&quot;&gt;&lt;span style=&quot;color: #000000; font-size: 20px; line-height: 16.5px;&quot;&gt;Stop&lt;br&gt;&lt;br&gt;id: string&lt;br&gt;stationId: string&lt;br&gt;sequence: int16&lt;br&gt;realStartTime: datetime&lt;br&gt;expectedStarttime: datetime&lt;br&gt;realEndTime: datetime&lt;br&gt;expectedEndTime: datetime&lt;br&gt;delay: duration&lt;/span&gt;&lt;br&gt;&lt;/span&gt;&lt;/span&gt;&lt;/div&gt;&lt;/div&gt;" style="shape=rect;rounded=1;arcSize=15;absoluteArcSize=1;shadow=0;strokeWidth=1;fillColor=none;pointerEvents=0;strokeColor=#000000;gradientColor=#FFFFFF;gradientDirection=north;opacity=100.0;dashed=1;fixDash=1;dashPattern=;html=1;nl2Br=0;verticalAlign=middle;align=center;spacingLeft=2.0;spacingRight=0;whiteSpace=wrap;gliffyId=197;" parent="1" vertex="1">
                    <mxGeometry x="5624.26416015625" y="1642.9010009765625" width="311" height="286" as="geometry"/>
                </mxCell>
                <mxCell id="r-MVeTWE6W_a-qISFKLb-159" value="&lt;div style='width: 252.0px;height:auto;word-break: break-word;'&gt;&lt;div align=&quot;center&quot;&gt;&lt;span style=&quot;font-family: Arial; font-size: 20px; line-height: 0;&quot;&gt;&lt;span style=&quot; line-height: 0;&quot;&gt;&lt;span style=&quot;color: #000000; font-size: 20px; line-height: 16.5px;&quot;&gt;Station&lt;br&gt;&lt;br&gt;id: string&lt;br&gt;code: int32&lt;br&gt;name: string&lt;br&gt;latitude: double&lt;br&gt;longitude: double&lt;br&gt;&lt;/span&gt;&lt;br&gt;&lt;/span&gt;&lt;/span&gt;&lt;/div&gt;&lt;/div&gt;" style="shape=rect;rounded=1;arcSize=15;absoluteArcSize=1;shadow=0;strokeWidth=1;fillColor=none;pointerEvents=0;strokeColor=#000000;gradientColor=#FFFFFF;gradientDirection=north;opacity=100.0;dashed=1;fixDash=1;dashPattern=;html=1;nl2Br=0;verticalAlign=middle;align=center;spacingLeft=2.0;spacingRight=0;whiteSpace=wrap;gliffyId=199;" parent="1" vertex="1">
                    <mxGeometry x="5951.42724609375" y="1659.3238525390625" width="259" height="216" as="geometry"/>
                </mxCell>
                <mxCell id="r-MVeTWE6W_a-qISFKLb-160" value="&lt;div style='width: 333.0px;height:auto;word-break: break-word;'&gt;&lt;div align=&quot;center&quot;&gt;&lt;span style=&quot;font-family: Arial; font-size: 20px; line-height: 0;&quot;&gt;&lt;span style=&quot; line-height: 0;&quot;&gt;&lt;span style=&quot;color: #000000; font-size: 20px; line-height: 16.5px;&quot;&gt;Route/Train&lt;br&gt;&lt;br&gt;id: string&lt;br&gt;stopId: string&lt;br&gt;trainNumber: int32&lt;br&gt;source: string&lt;br&gt;destination: string&lt;br&gt;bikesAllowed: int8&lt;br&gt;wheelchairAccessible: int8&lt;br&gt;routeType: int8&lt;br&gt;&lt;/span&gt;&lt;br&gt;&lt;/span&gt;&lt;/span&gt;&lt;/div&gt;&lt;/div&gt;" style="shape=rect;rounded=1;arcSize=15;absoluteArcSize=1;shadow=0;strokeWidth=1;fillColor=none;pointerEvents=0;strokeColor=#000000;gradientColor=#FFFFFF;gradientDirection=north;opacity=100.0;dashed=1;fixDash=1;dashPattern=;html=1;nl2Br=0;verticalAlign=middle;align=center;spacingLeft=2.0;spacingRight=0;whiteSpace=wrap;gliffyId=201;" parent="1" vertex="1">
                    <mxGeometry x="5265.119140625" y="1643.972412109375" width="340" height="285" as="geometry"/>
                </mxCell>
                <mxCell id="r-MVeTWE6W_a-qISFKLb-161" value="&lt;div style='width: 125.0px;height:auto;word-break: break-word;'&gt;&lt;div align=&quot;center&quot;&gt;&lt;span style=&quot;font-family: Arial; font-size: 20px; line-height: 0;&quot;&gt;&lt;span style=&quot; line-height: 0;&quot;&gt;&lt;span style=&quot;color: #000000; font-size: 20px; line-height: 16.5px;&quot;&gt;Stop&lt;/span&gt;&lt;br&gt;&lt;/span&gt;&lt;/span&gt;&lt;/div&gt;&lt;/div&gt;" style="shape=rect;rounded=1;arcSize=15;absoluteArcSize=1;shadow=0;strokeWidth=1;fillColor=none;pointerEvents=0;strokeColor=#000000;gradientColor=#FFFFFF;gradientDirection=north;opacity=100.0;dashed=1;fixDash=1;dashPattern=;html=1;nl2Br=0;verticalAlign=middle;align=center;spacingLeft=2.0;spacingRight=0;whiteSpace=wrap;gliffyId=203;" parent="1" vertex="1">
                    <mxGeometry x="5681.439453125" y="1160.5" width="132" height="87" as="geometry"/>
                </mxCell>
                <mxCell id="r-MVeTWE6W_a-qISFKLb-162" value="&lt;div style='width: 125.0px;height:auto;word-break: break-word;'&gt;&lt;div align=&quot;center&quot;&gt;&lt;span style=&quot;font-family: Arial; font-size: 20px; line-height: 0;&quot;&gt;&lt;span style=&quot; line-height: 0;&quot;&gt;&lt;span style=&quot;color: #000000; font-size: 20px; line-height: 16.5px;&quot;&gt;Stop&lt;/span&gt;&lt;br&gt;&lt;/span&gt;&lt;/span&gt;&lt;/div&gt;&lt;/div&gt;" style="shape=rect;rounded=1;arcSize=15;absoluteArcSize=1;shadow=0;strokeWidth=1;fillColor=none;pointerEvents=0;strokeColor=#000000;gradientColor=#FFFFFF;gradientDirection=north;opacity=100.0;dashed=1;fixDash=1;dashPattern=;html=1;nl2Br=0;verticalAlign=middle;align=center;spacingLeft=2.0;spacingRight=0;whiteSpace=wrap;gliffyId=205;" parent="1" vertex="1">
                    <mxGeometry x="5964.77294921875" y="1170.5" width="132" height="87" as="geometry"/>
                </mxCell>
                <mxCell id="r-MVeTWE6W_a-qISFKLb-163" style="shape=rect;shadow=0;strokeWidth=1;fillColor=none;pointerEvents=0;strokeColor=#000000;opacity=100.0;dashed=1;fixDash=1;dashPattern=;gliffyId=207;" parent="1" vertex="1">
                    <mxGeometry x="5847.3232421875" y="3436.207763671875" width="355.12286376953125" height="212.5370330810547" as="geometry"/>
                </mxCell>
                <mxCell id="r-MVeTWE6W_a-qISFKLb-164" style="shape=filledEdge;strokeWidth=1;strokeColor=#000000;fillColor=none;startArrow=none;startFill=0;startSize=6;endArrow=none;endFill=0;endSize=6;rounded=1;dashed=1;fixDash=1;dashPattern=;gliffyId=208;edgeStyle=orthogonalEdgeStyle;" parent="1" edge="1">
                    <mxGeometry width="357.7834167480469" relative="1" as="geometry">
                        <mxPoint x="5844.33642578125" y="3465.966552734375" as="sourcePoint"/>
                        <mxPoint x="6202.11962890625" y="3465.966552734375" as="targetPoint"/>
                    </mxGeometry>
                </mxCell>
                <mxCell id="r-MVeTWE6W_a-qISFKLb-165" style="shape=ellipse;perimeter=ellipsePerimeter;shadow=0;strokeWidth=1;fillColor=#fa5252;strokeColor=#000000;opacity=100.0;dashed=1;fixDash=1;dashPattern=;gliffyId=209;" parent="1" vertex="1">
                    <mxGeometry x="5859.7861328125" y="3448.069580078125" width="13.89001178741455" height="13.89001178741455" as="geometry"/>
                </mxCell>
                <mxCell id="r-MVeTWE6W_a-qISFKLb-166" style="shape=ellipse;perimeter=ellipsePerimeter;shadow=0;strokeWidth=1;fillColor=#fab005;strokeColor=#000000;opacity=100.0;dashed=1;fixDash=1;dashPattern=;gliffyId=210;" parent="1" vertex="1">
                    <mxGeometry x="5888.28515625" y="3448.069580078125" width="13.89001178741455" height="13.89001178741455" as="geometry"/>
                </mxCell>
                <mxCell id="r-MVeTWE6W_a-qISFKLb-167" style="shape=ellipse;perimeter=ellipsePerimeter;shadow=0;strokeWidth=1;fillColor=#40c057;strokeColor=#000000;opacity=100.0;dashed=1;fixDash=1;dashPattern=;gliffyId=211;" parent="1" vertex="1">
                    <mxGeometry x="5918.03515625" y="3449.321044921875" width="13.89001178741455" height="13.89001178741455" as="geometry"/>
                </mxCell>
                <mxCell id="r-MVeTWE6W_a-qISFKLb-168" style="shape=ellipse;perimeter=ellipsePerimeter;shadow=0;strokeWidth=1;fillColor=#04aaf7;strokeColor=#000000;opacity=90.0;dashed=1;fixDash=1;dashPattern=;gliffyId=212;" parent="1" vertex="1">
                    <mxGeometry x="5962.541015625" y="3493.897216796875" width="118.63047790527344" height="118.63047790527344" as="geometry"/>
                </mxCell>
                <mxCell id="r-MVeTWE6W_a-qISFKLb-169" style="shape=filledEdge;strokeWidth=1;strokeColor=#087f5b;fillColor=none;startArrow=none;startFill=0;startSize=6;endArrow=none;endFill=0;endSize=6;rounded=1;dashed=1;fixDash=1;dashPattern=;gliffyId=213;" parent="1" edge="1">
                    <mxGeometry width="78.3818359375" height="67.87098693847656" relative="1" as="geometry">
                        <mxPoint x="6037.73486328125" y="3538.950927734375" as="sourcePoint"/>
                        <mxPoint x="6037.73486328125" y="3538.950927734375" as="targetPoint"/>
                        <Array as="points">
                            <mxPoint x="6032.6513671875" y="3537.799560546875"/>
                            <mxPoint x="6016.70751953125" y="3521.53515625"/>
                            <mxPoint x="6006.1953125" y="3526.8779296875"/>
                            <mxPoint x="6002.712890625" y="3545.54150390625"/>
                            <mxPoint x="6006.44189453125" y="3557.66748046875"/>
                            <mxPoint x="5989.3486328125" y="3563.626953125"/>
                            <mxPoint x="5989.962890625" y="3576.8369140625"/>
                            <mxPoint x="6003.35400390625" y="3576.022705078125"/>
                            <mxPoint x="6013.5888671875" y="3565.269775390625"/>
                            <mxPoint x="6027.68212890625" y="3588.56787109375"/>
                            <mxPoint x="6036.58154296875" y="3589.406005859375"/>
                            <mxPoint x="6027.24560546875" y="3552.28125"/>
                            <mxPoint x="6041.58544921875" y="3551.02392578125"/>
                            <mxPoint x="6046.51708984375" y="3555.244140625"/>
                            <mxPoint x="6063.3828125" y="3555.244140625"/>
                            <mxPoint x="6067.73046875" y="3540.714111328125"/>
                            <mxPoint x="6049.45703125" y="3542.0341796875"/>
                            <mxPoint x="6052.9697265625" y="3522.956298828125"/>
                            <mxPoint x="6044.60107421875" y="3524.107666015625"/>
                            <mxPoint x="6037.07470703125" y="3536.387939453125"/>
                        </Array>
                    </mxGeometry>
                </mxCell>
                <mxCell id="r-MVeTWE6W_a-qISFKLb-170" style="shape=filledEdge;strokeWidth=1;strokeColor=#000000;fillColor=none;startArrow=none;startFill=0;startSize=6;endArrow=none;endFill=0;endSize=6;rounded=1;dashed=1;fixDash=1;dashPattern=;gliffyId=214;edgeStyle=orthogonalEdgeStyle;" parent="1" edge="1">
                    <mxGeometry width="116.89466857910156" relative="1" as="geometry">
                        <mxPoint x="5965.48193359375" y="3552.109375" as="sourcePoint"/>
                        <mxPoint x="6082.37646484375" y="3552.109375" as="targetPoint"/>
                    </mxGeometry>
                </mxCell>
                <mxCell id="r-MVeTWE6W_a-qISFKLb-171" style="shape=filledEdge;strokeWidth=1;strokeColor=#000000;fillColor=none;startArrow=none;startFill=0;startSize=6;endArrow=none;endFill=0;endSize=6;rounded=1;dashed=1;fixDash=1;dashPattern=;gliffyId=215;" parent="1" edge="1">
                    <mxGeometry width="81.41535186767578" height="15.85953140258789" relative="1" as="geometry">
                        <mxPoint x="5979.63134765625" y="3509.2490234375" as="sourcePoint"/>
                        <mxPoint x="6061.046875" y="3508.52001953125" as="targetPoint"/>
                        <Array as="points">
                            <mxPoint x="5981.7763671875" y="3515.57080078125"/>
                            <mxPoint x="5991.0263671875" y="3520.875"/>
                            <mxPoint x="6003.33544921875" y="3524.0869140625"/>
                            <mxPoint x="6022.619140625" y="3524.379638671875"/>
                            <mxPoint x="6045.1220703125" y="3522.334716796875"/>
                            <mxPoint x="6058.26416015625" y="3514.89501953125"/>
                        </Array>
                    </mxGeometry>
                </mxCell>
                <mxCell id="r-MVeTWE6W_a-qISFKLb-172" style="shape=ellipse;perimeter=ellipsePerimeter;shadow=0;strokeWidth=1;fillColor=none;pointerEvents=0;strokeColor=#000000;opacity=90.0;dashed=1;fixDash=1;dashPattern=;gliffyId=216;" parent="1" vertex="1">
                    <mxGeometry x="6002.0517578125" y="3490.05810546875" width="43.12118148803711" height="124.46784210205078" as="geometry"/>
                </mxCell>
                <mxCell id="r-MVeTWE6W_a-qISFKLb-173" style="shape=filledEdge;strokeWidth=1;strokeColor=#000000;fillColor=none;startArrow=none;startFill=0;startSize=6;endArrow=none;endFill=0;endSize=6;rounded=1;dashed=1;fixDash=1;dashPattern=;gliffyId=217;" parent="1" edge="1">
                    <mxGeometry width="81.41535186767578" height="16.37287712097168" relative="1" as="geometry">
                        <mxPoint x="5983.8408203125" y="3597.380126953125" as="sourcePoint"/>
                        <mxPoint x="6065.25634765625" y="3598.132568359375" as="targetPoint"/>
                        <Array as="points">
                            <mxPoint x="5995.23583984375" y="3585.3779296875"/>
                            <mxPoint x="6007.544921875" y="3582.06201171875"/>
                            <mxPoint x="6026.82861328125" y="3581.759765625"/>
                            <mxPoint x="6049.33154296875" y="3583.870849609375"/>
                            <mxPoint x="6062.4736328125" y="3591.55126953125"/>
                        </Array>
                    </mxGeometry>
                </mxCell>
                <mxCell id="r-MVeTWE6W_a-qISFKLb-174" style="shape=filledEdge;strokeWidth=1;strokeColor=#000000;fillColor=none;startArrow=none;startFill=0;startSize=6;endArrow=open;endFill=0;endSize=6;rounded=1;dashed=1;fixDash=1;dashPattern=;html=1;nl2Br=0;gliffyId=218;" parent="1" edge="1">
                    <mxGeometry width="570.90478515625" height="186.71438598632812" relative="1" as="geometry">
                        <mxPoint x="5247.20703125" y="3353.062744140625" as="sourcePoint"/>
                        <mxPoint x="5818.11181640625" y="3539.777099609375" as="targetPoint"/>
                    </mxGeometry>
                </mxCell>
                <mxCell id="r-MVeTWE6W_a-qISFKLb-175" value="&lt;div style=&quot;width: 563.9048px;height:auto;word-break: break-word;&quot;&gt;&lt;div align=&quot;center&quot;&gt;&lt;span style=&quot;font-family: Arial; font-size: 20px; line-height: 0;&quot;&gt;&lt;span style=&quot; line-height: 0;&quot;&gt;&lt;span style=&quot;color: #000000; font-size: 20px; line-height: 16.5px;&quot;&gt;Map of all stations and trains&lt;/span&gt;&lt;br&gt;&lt;/span&gt;&lt;/span&gt;&lt;/div&gt;&lt;/div&gt;" style="text;html=1;nl2Br=0;points=[];labelBackgroundColor=none;html=1;nl2Br=0;verticalAlign=middle;align=center;spacingLeft=0.0;spacingRight=0;whiteSpace=wrap;gliffyId=219;" parent="r-MVeTWE6W_a-qISFKLb-174" vertex="1">
                    <mxGeometry relative="1" as="geometry">
                        <mxPoint x="24" y="-51" as="offset"/>
                    </mxGeometry>
                </mxCell>
                <mxCell id="r-MVeTWE6W_a-qISFKLb-176" value="&lt;div style='width: 601.8235px;height:auto;word-break: break-word;'&gt;&lt;div align=&quot;left&quot;&gt;&lt;span style=&quot;font-family: Arial; font-size: 20px; line-height: 0;&quot;&gt;&lt;span style=&quot; line-height: 0;&quot;&gt;&lt;span style=&quot;color: #000000; font-size: 20px; line-height: 16.5px;&quot;&gt;A Route number is unique in a day, but what is it?&lt;/span&gt;&lt;br&gt;&lt;/span&gt;&lt;/span&gt;&lt;/div&gt;&lt;/div&gt;" style="text;html=1;nl2Br=0;html=1;nl2Br=0;verticalAlign=middle;align=left;spacingLeft=0.0;spacingRight=0;whiteSpace=wrap;gliffyId=220;" parent="1" vertex="1">
                    <mxGeometry x="4060.33251953125" y="460" width="604.823486328125" height="25" as="geometry"/>
                </mxCell>
                <mxCell id="r-MVeTWE6W_a-qISFKLb-177" value="&lt;div style='width: 274.0px;height:auto;word-break: break-word;'&gt;&lt;div align=&quot;center&quot;&gt;&lt;span style=&quot;font-family: Arial; font-size: 20px; line-height: 0;&quot;&gt;&lt;span style=&quot; line-height: 0;&quot;&gt;&lt;span style=&quot;color: #000000; font-size: 20px; line-height: 16.5px;&quot;&gt;Start Route fetcher with &lt;br&gt;fetched stations&lt;/span&gt;&lt;br&gt;&lt;/span&gt;&lt;/span&gt;&lt;/div&gt;&lt;/div&gt;" style="shape=rect;rounded=1;arcSize=15;absoluteArcSize=1;shadow=0;strokeWidth=1;fillColor=none;pointerEvents=0;strokeColor=#000000;gradientColor=#FFFFFF;gradientDirection=north;opacity=100.0;dashed=1;fixDash=1;dashPattern=;html=1;nl2Br=0;verticalAlign=middle;align=center;spacingLeft=2.0;spacingRight=0;whiteSpace=wrap;gliffyId=221;" parent="1" vertex="1">
                    <mxGeometry x="2182.01513671875" y="3451.15673828125" width="281" height="110" as="geometry"/>
                </mxCell>
                <mxCell id="r-MVeTWE6W_a-qISFKLb-178" style="shape=filledEdge;strokeWidth=1;strokeColor=#000000;fillColor=none;startArrow=none;startFill=0;startSize=6;endArrow=open;endFill=0;endSize=6;rounded=1;dashed=1;fixDash=1;dashPattern=;gliffyId=223;" parent="1" edge="1">
                    <mxGeometry width="38.88888931274414" height="2.222222328186035" relative="1" as="geometry">
                        <mxPoint x="2133.626220703125" y="3508.353271484375" as="sourcePoint"/>
                        <mxPoint x="2172.51513671875" y="3506.131103515625" as="targetPoint"/>
                    </mxGeometry>
                </mxCell>
                <mxCell id="r-MVeTWE6W_a-qISFKLb-179" style="shape=filledEdge;strokeWidth=1;strokeColor=#000000;fillColor=none;startArrow=none;startFill=0;startSize=6;endArrow=open;endFill=0;endSize=6;rounded=1;dashed=1;fixDash=1;dashPattern=;gliffyId=224;" parent="1" edge="1">
                    <mxGeometry width="312.84100341796875" height="201.80555725097656" relative="1" as="geometry">
                        <mxPoint x="2287.6832275390625" y="3415.71435546875" as="sourcePoint"/>
                        <mxPoint x="1974.84228515625" y="3213.90869140625" as="targetPoint"/>
                    </mxGeometry>
                </mxCell>
                <mxCell id="r-MVeTWE6W_a-qISFKLb-180" value="&lt;div style='width: 812.87946px;height:auto;word-break: break-word;'&gt;&lt;div align=&quot;left&quot;&gt;&lt;span style=&quot;font-family: Arial; font-size: 20px; line-height: 0;&quot;&gt;&lt;span style=&quot; line-height: 0;&quot;&gt;&lt;span style=&quot;color: #000000; font-size: 20px; line-height: 16.5px;&quot;&gt;Potential use cases. &lt;br&gt;Not even sure if the frontend is gonna be a site or an app or both.&lt;br&gt;For now the only fronted will be Grafana.&lt;/span&gt;&lt;br&gt;&lt;/span&gt;&lt;/span&gt;&lt;/div&gt;&lt;/div&gt;" style="text;html=1;nl2Br=0;html=1;nl2Br=0;verticalAlign=middle;align=left;spacingLeft=0.0;spacingRight=0;whiteSpace=wrap;gliffyId=225;" parent="1" vertex="1">
                    <mxGeometry x="5230.94775390625" y="2312.9166259765625" width="815.8794555664062" height="75" as="geometry"/>
                </mxCell>
                <mxCell id="r-MVeTWE6W_a-qISFKLb-181" value="&lt;div style='width: 101.255875px;height:auto;word-break: break-word;'&gt;&lt;div align=&quot;left&quot;&gt;&lt;span style=&quot;font-family: Arial; font-size: 20px; line-height: 0;&quot;&gt;&lt;span style=&quot; line-height: 0;&quot;&gt;&lt;span style=&quot;color: #846358; font-size: 20px; line-height: 16.5px;&quot;&gt;Postgres&lt;/span&gt;&lt;br&gt;&lt;/span&gt;&lt;/span&gt;&lt;/div&gt;&lt;/div&gt;" style="text;html=1;nl2Br=0;html=1;nl2Br=0;verticalAlign=middle;align=left;spacingLeft=0.0;spacingRight=0;whiteSpace=wrap;gliffyId=226;" parent="1" vertex="1">
                    <mxGeometry x="4514.1025390625" y="3282.749267578125" width="104.25587463378906" height="25" as="geometry"/>
                </mxCell>
                <mxCell id="r-MVeTWE6W_a-qISFKLb-182" value="&lt;div style='width: 333.0px;height:auto;word-break: break-word;'&gt;&lt;div align=&quot;center&quot;&gt;&lt;span style=&quot;font-family: Arial; font-size: 20px; line-height: 0;&quot;&gt;&lt;span style=&quot; line-height: 0;&quot;&gt;&lt;span style=&quot;color: #000000; font-size: 20px; line-height: 16.5px;&quot;&gt;Route/Train&lt;/span&gt;&lt;br&gt;&lt;/span&gt;&lt;/span&gt;&lt;/div&gt;&lt;/div&gt;" style="shape=rect;rounded=1;arcSize=15;absoluteArcSize=1;shadow=0;strokeWidth=1;fillColor=none;pointerEvents=0;strokeColor=#000000;gradientColor=#FFFFFF;gradientDirection=north;opacity=100.0;dashed=1;fixDash=1;dashPattern=;html=1;nl2Br=0;verticalAlign=middle;align=center;spacingLeft=2.0;spacingRight=0;whiteSpace=wrap;gliffyId=227;" parent="1" vertex="1">
                    <mxGeometry x="6360.9541015625" y="866.2275390625" width="340" height="145" as="geometry"/>
                </mxCell>
                <mxCell id="r-MVeTWE6W_a-qISFKLb-183" value="&lt;div style='width: 125.0px;height:auto;word-break: break-word;'&gt;&lt;div align=&quot;center&quot;&gt;&lt;span style=&quot;font-family: Arial; font-size: 20px; line-height: 0;&quot;&gt;&lt;span style=&quot; line-height: 0;&quot;&gt;&lt;span style=&quot;color: #000000; font-size: 20px; line-height: 16.5px;&quot;&gt;Stop&lt;/span&gt;&lt;br&gt;&lt;/span&gt;&lt;/span&gt;&lt;/div&gt;&lt;/div&gt;" style="shape=rect;rounded=1;arcSize=15;absoluteArcSize=1;shadow=0;strokeWidth=1;fillColor=none;pointerEvents=0;strokeColor=#000000;gradientColor=#FFFFFF;gradientDirection=north;opacity=100.0;dashed=1;fixDash=1;dashPattern=;html=1;nl2Br=0;verticalAlign=middle;align=center;spacingLeft=2.0;spacingRight=0;whiteSpace=wrap;gliffyId=229;" parent="1" vertex="1">
                    <mxGeometry x="6276.85400390625" y="1175.223388671875" width="132" height="87" as="geometry"/>
                </mxCell>
                <mxCell id="r-MVeTWE6W_a-qISFKLb-184" value="&lt;div style='width: 125.0px;height:auto;word-break: break-word;'&gt;&lt;div align=&quot;center&quot;&gt;&lt;span style=&quot;font-family: Arial; font-size: 20px; line-height: 0;&quot;&gt;&lt;span style=&quot; line-height: 0;&quot;&gt;&lt;span style=&quot;color: #000000; font-size: 20px; line-height: 16.5px;&quot;&gt;Stop&lt;/span&gt;&lt;br&gt;&lt;/span&gt;&lt;/span&gt;&lt;/div&gt;&lt;/div&gt;" style="shape=rect;rounded=1;arcSize=15;absoluteArcSize=1;shadow=0;strokeWidth=1;fillColor=none;pointerEvents=0;strokeColor=#000000;gradientColor=#FFFFFF;gradientDirection=north;opacity=100.0;dashed=1;fixDash=1;dashPattern=;html=1;nl2Br=0;verticalAlign=middle;align=center;spacingLeft=2.0;spacingRight=0;whiteSpace=wrap;gliffyId=231;" parent="1" vertex="1">
                    <mxGeometry x="6575.5166015625" y="1178.0951538085938" width="132" height="87" as="geometry"/>
                </mxCell>
                <mxCell id="r-MVeTWE6W_a-qISFKLb-185" style="shape=filledEdge;strokeWidth=1;strokeColor=#846358;fillColor=none;startArrow=none;startFill=0;startSize=6;endArrow=open;endFill=0;endSize=6;rounded=1;dashed=1;fixDash=1;dashPattern=;gliffyId=233;" parent="1" edge="1">
                    <mxGeometry width="47.04551696777344" height="134.97238159179688" relative="1" as="geometry">
                        <mxPoint x="6396.232421875" y="1026.3159790039062" as="sourcePoint"/>
                        <mxPoint x="6349.18701171875" y="1161.288330078125" as="targetPoint"/>
                    </mxGeometry>
                </mxCell>
                <mxCell id="r-MVeTWE6W_a-qISFKLb-186" style="shape=filledEdge;strokeWidth=1;strokeColor=#846358;fillColor=none;startArrow=none;startFill=0;startSize=6;endArrow=open;endFill=0;endSize=6;rounded=1;dashed=1;fixDash=1;dashPattern=;gliffyId=234;" parent="1" edge="1">
                    <mxGeometry width="48.81979751586914" height="137.84413146972656" relative="1" as="geometry">
                        <mxPoint x="6586.953125" y="1027.7518310546875" as="sourcePoint"/>
                        <mxPoint x="6635.77294921875" y="1165.595947265625" as="targetPoint"/>
                    </mxGeometry>
                </mxCell>
                <mxCell id="r-MVeTWE6W_a-qISFKLb-187" style="shape=filledEdge;strokeWidth=1;strokeColor=#846358;fillColor=none;startArrow=none;startFill=0;startSize=6;endArrow=open;endFill=0;endSize=6;rounded=1;dashed=1;fixDash=1;dashPattern=;gliffyId=235;" parent="1" edge="1">
                    <mxGeometry width="48.95134735107422" height="147.42124938964844" relative="1" as="geometry">
                        <mxPoint x="6292.90478515625" y="1272.3248901367188" as="sourcePoint"/>
                        <mxPoint x="6243.95361328125" y="1419.7461547851562" as="targetPoint"/>
                    </mxGeometry>
                </mxCell>
                <mxCell id="r-MVeTWE6W_a-qISFKLb-188" value="&lt;div style='width: 193.0px;height:auto;word-break: break-word;'&gt;&lt;div align=&quot;center&quot;&gt;&lt;span style=&quot;font-family: Arial; font-size: 20px; line-height: 0;&quot;&gt;&lt;span style=&quot; line-height: 0;&quot;&gt;&lt;span style=&quot;color: #000000; font-size: 20px; line-height: 16.5px;&quot;&gt;Station&lt;/span&gt;&lt;br&gt;&lt;/span&gt;&lt;/span&gt;&lt;/div&gt;&lt;/div&gt;" style="shape=rect;rounded=1;arcSize=15;absoluteArcSize=1;shadow=0;strokeWidth=1;fillColor=none;pointerEvents=0;strokeColor=#000000;gradientColor=#FFFFFF;gradientDirection=north;opacity=100.0;dashed=1;fixDash=1;dashPattern=;html=1;nl2Br=0;verticalAlign=middle;align=center;spacingLeft=2.0;spacingRight=0;whiteSpace=wrap;gliffyId=236;" parent="1" vertex="1">
                    <mxGeometry x="6551.5673828125" y="1427.2192993164062" width="200" height="143" as="geometry"/>
                </mxCell>
                <mxCell id="r-MVeTWE6W_a-qISFKLb-189" style="shape=filledEdge;strokeWidth=1;strokeColor=#846358;fillColor=none;startArrow=none;startFill=0;startSize=6;endArrow=open;endFill=0;endSize=6;rounded=1;dashed=1;fixDash=1;dashPattern=;gliffyId=238;" parent="1" edge="1">
                    <mxGeometry width="1.4358763694763184" height="132.1006317138672" relative="1" as="geometry">
                        <mxPoint x="6648.69580078125" y="1277.5943603515625" as="sourcePoint"/>
                        <mxPoint x="6650.1318359375" y="1409.6950073242188" as="targetPoint"/>
                    </mxGeometry>
                </mxCell>
            </root>
        </mxGraphModel>
    </diagram>
</mxfile>